solid barreljack remix
facet normal 1.6349013346410893e-17 -2.0689446745257483e-32 1.0
  outer loop
    vertex -3.223226575747497 35.767256833457715 2.949974020568914
    vertex -3.265819292886152 46.17078063983587 2.949974020568914
    vertex -3.2658192928861616 36.09078063983586 2.949974020568914
  endloop
endfacet
facet normal 1.6349013346410893e-17 -2.0689446745257483e-32 1.0
  outer loop
    vertex -3.265819292886152 46.17078063983587 2.949974020568914
    vertex -3.223226575747497 35.767256833457715 2.949974020568914
    vertex -3.223226575747487 46.49430444621402 2.949974020568914
  endloop
endfacet
facet normal 1.6349013346410893e-17 -2.0689446745257483e-32 1.0
  outer loop
    vertex -3.223226575747487 46.49430444621402 2.949974020568914
    vertex -3.223226575747497 35.767256833457715 2.949974020568914
    vertex -3.0983510476167093 35.46578063983586 2.949974020568914
  endloop
endfacet
facet normal 1.6349013346410893e-17 -2.0689446745257483e-32 1.0
  outer loop
    vertex -3.223226575747487 46.49430444621402 2.949974020568914
    vertex -3.0983510476167093 35.46578063983586 2.949974020568914
    vertex -3.0983510476167 46.79578063983587 2.949974020568914
  endloop
endfacet
facet normal 1.6349013346410893e-17 -2.0689446745257483e-32 1.0
  outer loop
    vertex -3.0983510476167 46.79578063983587 2.949974020568914
    vertex -3.0983510476167093 35.46578063983586 2.949974020568914
    vertex -2.8997027693693456 35.20689716335268 2.949974020568914
  endloop
endfacet
facet normal 1.6349013346410893e-17 -2.0689446745257483e-32 1.0
  outer loop
    vertex -3.0983510476167 46.79578063983587 2.949974020568914
    vertex -2.8997027693693456 35.20689716335268 2.949974020568914
    vertex -2.8997027693693362 47.05466411631905 2.949974020568914
  endloop
endfacet
facet normal 1.6349013346410893e-17 -2.0689446745257483e-32 1.0
  outer loop
    vertex -2.8997027693693362 47.05466411631905 2.949974020568914
    vertex -2.8997027693693456 35.20689716335268 2.949974020568914
    vertex -2.6408192928861607 35.00824888510532 2.949974020568914
  endloop
endfacet
facet normal 1.6349013346410893e-17 -2.0689446745257483e-32 1.0
  outer loop
    vertex -2.8997027693693362 47.05466411631905 2.949974020568914
    vertex -2.6408192928861607 35.00824888510532 2.949974020568914
    vertex -2.6408192928861522 47.253312394566414 2.949974020568914
  endloop
endfacet
facet normal 1.6349013346410893e-17 -2.0689446745257483e-32 1.0
  outer loop
    vertex -2.6408192928861522 47.253312394566414 2.949974020568914
    vertex -2.6408192928861607 35.00824888510532 2.949974020568914
    vertex -2.339343099264312 34.88337335697452 2.949974020568914
  endloop
endfacet
facet normal 1.6349013346410893e-17 -2.0689446745257483e-32 1.0
  outer loop
    vertex -2.6408192928861522 47.253312394566414 2.949974020568914
    vertex -2.339343099264312 34.88337335697452 2.949974020568914
    vertex -2.339343099264304 47.3781879226972 2.949974020568914
  endloop
endfacet
facet normal 1.6349013346410893e-17 -2.0689446745257483e-32 1.0
  outer loop
    vertex -2.339343099264304 47.3781879226972 2.949974020568914
    vertex -2.339343099264312 34.88337335697452 2.949974020568914
    vertex -2.0158192928861607 34.84078063983586 2.949974020568914
  endloop
endfacet
facet normal 1.6349013346410893e-17 -2.0689446745257483e-32 1.0
  outer loop
    vertex -2.339343099264304 47.3781879226972 2.949974020568914
    vertex -2.0158192928861607 34.84078063983586 2.949974020568914
    vertex -2.0158192928861527 47.42078063983587 2.949974020568914
  endloop
endfacet
facet normal 1.6349013346410893e-17 -2.0689446745257483e-32 1.0
  outer loop
    vertex -2.0158192928861527 47.42078063983587 2.949974020568914
    vertex -2.0158192928861607 34.84078063983586 2.949974020568914
    vertex 4.885102679978027 38.66661106670185 2.9499740205689133
  endloop
endfacet
facet normal 1.6349013346410893e-17 -2.0689446745257483e-32 1.0
  outer loop
    vertex 4.885102679978027 38.66661106670185 2.9499740205689133
    vertex -2.0158192928861607 34.84078063983586 2.949974020568914
    vertex 5.221464260486308 38.28306419320832 2.9499740205689133
  endloop
endfacet
facet normal 1.6349013346410893e-17 -2.0689446745257483e-32 1.0
  outer loop
    vertex 5.221464260486308 38.28306419320832 2.9499740205689133
    vertex -2.0158192928861607 34.84078063983586 2.949974020568914
    vertex 5.605011133979832 37.94670261270004 2.9499740205689133
  endloop
endfacet
facet normal 1.6349013346410893e-17 -2.0689446745257483e-32 1.0
  outer loop
    vertex 5.605011133979832 37.94670261270004 2.9499740205689133
    vertex -2.0158192928861607 34.84078063983586 2.949974020568914
    vertex 6.0291807071138415 37.663281565076545 2.9499740205689133
  endloop
endfacet
facet normal 1.6349013346410893e-17 -2.0689446745257483e-32 1.0
  outer loop
    vertex 6.0291807071138415 37.663281565076545 2.9499740205689133
    vertex -2.0158192928861607 34.84078063983586 2.949974020568914
    vertex 6.486715320889991 37.43765046304184 2.9499740205689133
  endloop
endfacet
facet normal 1.6349013346410893e-17 -2.0689446745257483e-32 1.0
  outer loop
    vertex 6.486715320889991 37.43765046304184 2.9499740205689133
    vertex -2.0158192928861607 34.84078063983586 2.949974020568914
    vertex 6.9697864312140085 37.273669917308496 2.9499740205689133
  endloop
endfacet
facet normal 1.6349013346410893e-17 -2.0689446745257483e-32 1.0
  outer loop
    vertex 6.9697864312140085 37.273669917308496 2.9499740205689133
    vertex -2.0158192928861607 34.84078063983586 2.949974020568914
    vertex 17.974180707113838 34.84078063983584 2.9499740205689133
  endloop
endfacet
facet normal 1.6349013346410893e-17 -2.0689446745257483e-32 1.0
  outer loop
    vertex -2.0158192928861527 47.42078063983587 2.949974020568914
    vertex 4.885102679978027 38.66661106670185 2.9499740205689133
    vertex 4.601681632354534 39.090780639835856 2.9499740205689133
  endloop
endfacet
facet normal 1.6349013346410893e-17 -2.0689446745257483e-32 1.0
  outer loop
    vertex -2.0158192928861527 47.42078063983587 2.949974020568914
    vertex 4.601681632354534 39.090780639835856 2.9499740205689133
    vertex 4.3760505303198265 39.54831525361201 2.9499740205689133
  endloop
endfacet
facet normal 1.6349013346410893e-17 -2.0689446745257483e-32 1.0
  outer loop
    vertex -2.0158192928861527 47.42078063983587 2.949974020568914
    vertex 4.3760505303198265 39.54831525361201 2.9499740205689133
    vertex 4.212069984586479 40.03138636393602 2.9499740205689133
  endloop
endfacet
facet normal 1.6349013346410893e-17 -2.0689446745257483e-32 1.0
  outer loop
    vertex -2.0158192928861527 47.42078063983587 2.949974020568914
    vertex 4.212069984586479 40.03138636393602 2.9499740205689133
    vertex 4.112545747755985 40.531728490177656 2.9499740205689133
  endloop
endfacet
facet normal 1.6349013346410893e-17 -2.0689446745257483e-32 1.0
  outer loop
    vertex -2.0158192928861527 47.42078063983587 2.949974020568914
    vertex 4.112545747755985 40.531728490177656 2.9499740205689133
    vertex 4.079180707113845 41.04078063983585 2.9499740205689133
  endloop
endfacet
facet normal 1.6349013346410893e-17 -2.0689446745257483e-32 1.0
  outer loop
    vertex 6.9697864312140085 37.273669917308496 2.9499740205689133
    vertex 17.974180707113838 34.84078063983584 2.9499740205689133
    vertex 7.470128557455636 37.17414568047799 2.9499740205689133
  endloop
endfacet
facet normal 1.6349013346410893e-17 -2.0689446745257483e-32 1.0
  outer loop
    vertex 7.470128557455636 37.17414568047799 2.9499740205689133
    vertex 17.974180707113838 34.84078063983584 2.9499740205689133
    vertex 7.979180707113841 37.14078063983585 2.9499740205689133
  endloop
endfacet
facet normal 1.6349013346410893e-17 -2.0689446745257483e-32 1.0
  outer loop
    vertex 7.979180707113841 37.14078063983585 2.9499740205689133
    vertex 17.974180707113838 34.84078063983584 2.9499740205689133
    vertex 8.488232856772042 37.17414568047799 2.9499740205689133
  endloop
endfacet
facet normal 1.6349013346410893e-17 -2.0689446745257483e-32 1.0
  outer loop
    vertex 8.488232856772042 37.17414568047799 2.9499740205689133
    vertex 17.974180707113838 34.84078063983584 2.9499740205689133
    vertex 8.98857498301367 37.273669917308496 2.9499740205689133
  endloop
endfacet
facet normal 1.6349013346410893e-17 -2.0689446745257483e-32 1.0
  outer loop
    vertex 8.98857498301367 37.273669917308496 2.9499740205689133
    vertex 17.974180707113838 34.84078063983584 2.9499740205689133
    vertex 9.47164609333769 37.43765046304184 2.9499740205689133
  endloop
endfacet
facet normal 1.6349013346410893e-17 -2.0689446745257483e-32 1.0
  outer loop
    vertex 9.47164609333769 37.43765046304184 2.9499740205689133
    vertex 17.974180707113838 34.84078063983584 2.9499740205689133
    vertex 9.929180707113838 37.663281565076545 2.9499740205689133
  endloop
endfacet
facet normal 1.6349013346410893e-17 -2.0689446745257483e-32 1.0
  outer loop
    vertex 9.929180707113838 37.663281565076545 2.9499740205689133
    vertex 17.974180707113838 34.84078063983584 2.9499740205689133
    vertex 10.353350280247849 37.94670261270004 2.9499740205689133
  endloop
endfacet
facet normal 1.6349013346410893e-17 -2.0689446745257483e-32 1.0
  outer loop
    vertex 10.353350280247849 37.94670261270004 2.9499740205689133
    vertex 17.974180707113838 34.84078063983584 2.9499740205689133
    vertex 10.736897153741372 38.28306419320832 2.9499740205689133
  endloop
endfacet
facet normal 1.6349013346410893e-17 -2.0689446745257483e-32 1.0
  outer loop
    vertex 10.736897153741372 38.28306419320832 2.9499740205689133
    vertex 17.974180707113838 34.84078063983584 2.9499740205689133
    vertex 11.073258734249654 38.66661106670185 2.9499740205689133
  endloop
endfacet
facet normal 1.6349013346410893e-17 -2.0689446745257483e-32 1.0
  outer loop
    vertex 11.073258734249654 38.66661106670185 2.9499740205689133
    vertex 17.974180707113838 34.84078063983584 2.9499740205689133
    vertex 11.356679781873147 39.090780639835856 2.9499740205689133
  endloop
endfacet
facet normal 1.6349013346410893e-17 -2.0689446745257483e-32 1.0
  outer loop
    vertex 11.356679781873147 39.090780639835856 2.9499740205689133
    vertex 17.974180707113838 34.84078063983584 2.9499740205689133
    vertex 11.582310883907855 39.54831525361201 2.9499740205689133
  endloop
endfacet
facet normal 1.6349013346410893e-17 -2.0689446745257483e-32 1.0
  outer loop
    vertex 11.582310883907855 39.54831525361201 2.9499740205689133
    vertex 17.974180707113838 34.84078063983584 2.9499740205689133
    vertex 11.746291429641204 40.03138636393602 2.9499740205689133
  endloop
endfacet
facet normal 1.6349013346410893e-17 -2.0689446745257483e-32 1.0
  outer loop
    vertex 11.746291429641204 40.03138636393602 2.9499740205689133
    vertex 17.974180707113838 34.84078063983584 2.9499740205689133
    vertex 11.845815666471697 40.531728490177656 2.9499740205689133
  endloop
endfacet
facet normal 1.6349013346410893e-17 -2.0689446745257483e-32 1.0
  outer loop
    vertex 11.845815666471697 40.531728490177656 2.9499740205689133
    vertex 17.974180707113838 34.84078063983584 2.9499740205689133
    vertex 11.879180707113836 41.04078063983585 2.9499740205689133
  endloop
endfacet
facet normal 1.6349013346410893e-17 -2.0689446745257483e-32 1.0
  outer loop
    vertex -2.0158192928861527 47.42078063983587 2.949974020568914
    vertex 6.969786431214012 44.807891362363215 2.9499740205689133
    vertex 17.974180707113845 47.42078063983585 2.9499740205689133
  endloop
endfacet
facet normal 1.6349013346410893e-17 -2.0689446745257483e-32 1.0
  outer loop
    vertex 6.969786431214012 44.807891362363215 2.9499740205689133
    vertex -2.0158192928861527 47.42078063983587 2.949974020568914
    vertex 6.486715320889992 44.64391081662987 2.9499740205689133
  endloop
endfacet
facet normal 1.6349013346410893e-17 -2.0689446745257483e-32 1.0
  outer loop
    vertex 6.486715320889992 44.64391081662987 2.9499740205689133
    vertex -2.0158192928861527 47.42078063983587 2.949974020568914
    vertex 6.029180707113843 44.41827971459516 2.9499740205689133
  endloop
endfacet
facet normal 1.6349013346410893e-17 -2.0689446745257483e-32 1.0
  outer loop
    vertex 6.029180707113843 44.41827971459516 2.9499740205689133
    vertex -2.0158192928861527 47.42078063983587 2.949974020568914
    vertex 5.605011133979834 44.13485866697167 2.9499740205689133
  endloop
endfacet
facet normal 1.6349013346410893e-17 -2.0689446745257483e-32 1.0
  outer loop
    vertex 5.605011133979834 44.13485866697167 2.9499740205689133
    vertex -2.0158192928861527 47.42078063983587 2.949974020568914
    vertex 5.221464260486309 43.798497086463385 2.9499740205689133
  endloop
endfacet
facet normal 1.6349013346410893e-17 -2.0689446745257483e-32 1.0
  outer loop
    vertex 5.221464260486309 43.798497086463385 2.9499740205689133
    vertex -2.0158192928861527 47.42078063983587 2.949974020568914
    vertex 4.8851026799780275 43.41495021296986 2.9499740205689133
  endloop
endfacet
facet normal 1.6349013346410893e-17 -2.0689446745257483e-32 1.0
  outer loop
    vertex 4.8851026799780275 43.41495021296986 2.9499740205689133
    vertex -2.0158192928861527 47.42078063983587 2.949974020568914
    vertex 4.601681632354534 42.99078063983585 2.9499740205689133
  endloop
endfacet
facet normal 1.6349013346410893e-17 -2.0689446745257483e-32 1.0
  outer loop
    vertex 4.601681632354534 42.99078063983585 2.9499740205689133
    vertex -2.0158192928861527 47.42078063983587 2.949974020568914
    vertex 4.3760505303198265 42.5332460260597 2.9499740205689133
  endloop
endfacet
facet normal 1.6349013346410893e-17 -2.0689446745257483e-32 1.0
  outer loop
    vertex 4.3760505303198265 42.5332460260597 2.9499740205689133
    vertex -2.0158192928861527 47.42078063983587 2.949974020568914
    vertex 4.212069984586479 42.05017491573569 2.9499740205689133
  endloop
endfacet
facet normal 1.6349013346410893e-17 -2.0689446745257483e-32 1.0
  outer loop
    vertex 4.212069984586479 42.05017491573569 2.9499740205689133
    vertex -2.0158192928861527 47.42078063983587 2.949974020568914
    vertex 4.112545747755985 41.549832789494054 2.9499740205689133
  endloop
endfacet
facet normal 1.6349013346410893e-17 -2.0689446745257483e-32 1.0
  outer loop
    vertex 4.112545747755985 41.549832789494054 2.9499740205689133
    vertex -2.0158192928861527 47.42078063983587 2.949974020568914
    vertex 4.079180707113845 41.04078063983585 2.9499740205689133
  endloop
endfacet
facet normal 1.6349013346410893e-17 -2.0689446745257483e-32 1.0
  outer loop
    vertex 17.974180707113845 47.42078063983585 2.9499740205689133
    vertex 6.969786431214012 44.807891362363215 2.9499740205689133
    vertex 7.470128557455641 44.90741559919371 2.9499740205689133
  endloop
endfacet
facet normal 1.6349013346410893e-17 -2.0689446745257483e-32 1.0
  outer loop
    vertex 17.974180707113845 47.42078063983585 2.9499740205689133
    vertex 7.470128557455641 44.90741559919371 2.9499740205689133
    vertex 7.979180707113841 44.94078063983585 2.9499740205689133
  endloop
endfacet
facet normal 1.6349013346410893e-17 -2.0689446745257483e-32 1.0
  outer loop
    vertex 17.974180707113845 47.42078063983585 2.9499740205689133
    vertex 7.979180707113841 44.94078063983585 2.9499740205689133
    vertex 8.488232856772045 44.90741559919371 2.9499740205689133
  endloop
endfacet
facet normal 1.6349013346410893e-17 -2.0689446745257483e-32 1.0
  outer loop
    vertex 17.974180707113845 47.42078063983585 2.9499740205689133
    vertex 8.488232856772045 44.90741559919371 2.9499740205689133
    vertex 8.988574983013672 44.807891362363215 2.9499740205689133
  endloop
endfacet
facet normal 1.6349013346410893e-17 -2.0689446745257483e-32 1.0
  outer loop
    vertex 17.974180707113845 47.42078063983585 2.9499740205689133
    vertex 8.988574983013672 44.807891362363215 2.9499740205689133
    vertex 9.471646093337691 44.64391081662987 2.9499740205689133
  endloop
endfacet
facet normal 1.6349013346410893e-17 -2.0689446745257483e-32 1.0
  outer loop
    vertex 17.974180707113845 47.42078063983585 2.9499740205689133
    vertex 9.471646093337691 44.64391081662987 2.9499740205689133
    vertex 9.92918070711384 44.41827971459516 2.9499740205689133
  endloop
endfacet
facet normal 1.6349013346410893e-17 -2.0689446745257483e-32 1.0
  outer loop
    vertex 17.974180707113845 47.42078063983585 2.9499740205689133
    vertex 9.92918070711384 44.41827971459516 2.9499740205689133
    vertex 10.35335028024785 44.13485866697167 2.9499740205689133
  endloop
endfacet
facet normal 1.6349013346410893e-17 -2.0689446745257483e-32 1.0
  outer loop
    vertex 17.974180707113845 47.42078063983585 2.9499740205689133
    vertex 10.35335028024785 44.13485866697167 2.9499740205689133
    vertex 10.736897153741374 43.798497086463385 2.9499740205689133
  endloop
endfacet
facet normal 1.6349013346410893e-17 -2.0689446745257483e-32 1.0
  outer loop
    vertex 17.974180707113845 47.42078063983585 2.9499740205689133
    vertex 10.736897153741374 43.798497086463385 2.9499740205689133
    vertex 11.073258734249654 43.41495021296986 2.9499740205689133
  endloop
endfacet
facet normal 1.6349013346410893e-17 -2.0689446745257483e-32 1.0
  outer loop
    vertex 17.974180707113845 47.42078063983585 2.9499740205689133
    vertex 11.073258734249654 43.41495021296986 2.9499740205689133
    vertex 11.356679781873147 42.99078063983585 2.9499740205689133
  endloop
endfacet
facet normal 1.6349013346410893e-17 -2.0689446745257483e-32 1.0
  outer loop
    vertex 17.974180707113845 47.42078063983585 2.9499740205689133
    vertex 11.356679781873147 42.99078063983585 2.9499740205689133
    vertex 11.582310883907855 42.5332460260597 2.9499740205689133
  endloop
endfacet
facet normal 1.6349013346410893e-17 -2.0689446745257483e-32 1.0
  outer loop
    vertex 17.974180707113845 47.42078063983585 2.9499740205689133
    vertex 11.582310883907855 42.5332460260597 2.9499740205689133
    vertex 11.746291429641204 42.05017491573569 2.9499740205689133
  endloop
endfacet
facet normal 1.6349013346410893e-17 -2.0689446745257483e-32 1.0
  outer loop
    vertex 17.974180707113845 47.42078063983585 2.9499740205689133
    vertex 11.746291429641204 42.05017491573569 2.9499740205689133
    vertex 11.845815666471697 41.549832789494054 2.9499740205689133
  endloop
endfacet
facet normal 1.6349013346410893e-17 -2.0689446745257483e-32 1.0
  outer loop
    vertex 17.974180707113845 47.42078063983585 2.9499740205689133
    vertex 11.845815666471697 41.549832789494054 2.9499740205689133
    vertex 11.879180707113836 41.04078063983585 2.9499740205689133
  endloop
endfacet
facet normal 1.6349013346410893e-17 -2.0689446745257483e-32 1.0
  outer loop
    vertex 17.974180707113845 47.42078063983585 2.9499740205689133
    vertex 11.879180707113836 41.04078063983585 2.9499740205689133
    vertex 17.974180707113838 34.84078063983584 2.9499740205689133
  endloop
endfacet
facet normal 1.6349013346410893e-17 -2.0689446745257483e-32 1.0
  outer loop
    vertex 17.974180707113845 47.42078063983585 2.9499740205689133
    vertex 17.974180707113838 34.84078063983584 2.9499740205689133
    vertex 18.297704513491986 34.88337335697451 2.9499740205689133
  endloop
endfacet
facet normal 1.6349013346410893e-17 -2.0689446745257483e-32 1.0
  outer loop
    vertex 17.974180707113845 47.42078063983585 2.9499740205689133
    vertex 18.297704513491986 34.88337335697451 2.9499740205689133
    vertex 18.297704513491997 47.37818792269719 2.9499740205689133
  endloop
endfacet
facet normal 1.6349013346410893e-17 -2.0689446745257483e-32 1.0
  outer loop
    vertex 18.297704513491997 47.37818792269719 2.9499740205689133
    vertex 18.297704513491986 34.88337335697451 2.9499740205689133
    vertex 18.599180707113835 35.008248885105296 2.9499740205689133
  endloop
endfacet
facet normal 1.6349013346410893e-17 -2.0689446745257483e-32 1.0
  outer loop
    vertex 18.297704513491997 47.37818792269719 2.9499740205689133
    vertex 18.599180707113835 35.008248885105296 2.9499740205689133
    vertex 18.599180707113845 47.25331239456639 2.9499740205689133
  endloop
endfacet
facet normal 1.6349013346410893e-17 -2.0689446745257483e-32 1.0
  outer loop
    vertex 18.599180707113845 47.25331239456639 2.9499740205689133
    vertex 18.599180707113835 35.008248885105296 2.9499740205689133
    vertex 18.858064183597023 35.20689716335266 2.9499740205689133
  endloop
endfacet
facet normal 1.6349013346410893e-17 -2.0689446745257483e-32 1.0
  outer loop
    vertex 18.599180707113845 47.25331239456639 2.9499740205689133
    vertex 18.858064183597023 35.20689716335266 2.9499740205689133
    vertex 18.85806418359703 47.05466411631903 2.9499740205689133
  endloop
endfacet
facet normal 1.6349013346410893e-17 -2.0689446745257483e-32 1.0
  outer loop
    vertex 18.85806418359703 47.05466411631903 2.9499740205689133
    vertex 18.858064183597023 35.20689716335266 2.9499740205689133
    vertex 19.056712461844384 35.46578063983584 2.9499740205689133
  endloop
endfacet
facet normal 1.6349013346410893e-17 -2.0689446745257483e-32 1.0
  outer loop
    vertex 18.85806418359703 47.05466411631903 2.9499740205689133
    vertex 19.056712461844384 35.46578063983584 2.9499740205689133
    vertex 19.056712461844395 46.79578063983585 2.9499740205689133
  endloop
endfacet
facet normal 1.6349013346410893e-17 -2.0689446745257483e-32 1.0
  outer loop
    vertex 19.056712461844395 46.79578063983585 2.9499740205689133
    vertex 19.056712461844384 35.46578063983584 2.9499740205689133
    vertex 19.18158798997517 35.76725683345769 2.9499740205689133
  endloop
endfacet
facet normal 1.6349013346410893e-17 -2.0689446745257483e-32 1.0
  outer loop
    vertex 19.056712461844395 46.79578063983585 2.9499740205689133
    vertex 19.18158798997517 35.76725683345769 2.9499740205689133
    vertex 19.18158798997518 46.494304446213995 2.9499740205689133
  endloop
endfacet
facet normal 1.6349013346410893e-17 -2.0689446745257483e-32 1.0
  outer loop
    vertex 19.18158798997518 46.494304446213995 2.9499740205689133
    vertex 19.18158798997517 35.76725683345769 2.9499740205689133
    vertex 19.224180707113835 36.09078063983584 2.9499740205689133
  endloop
endfacet
facet normal 1.6349013346410893e-17 -2.0689446745257483e-32 1.0
  outer loop
    vertex 19.18158798997518 46.494304446213995 2.9499740205689133
    vertex 19.224180707113835 36.09078063983584 2.9499740205689133
    vertex 19.224180707113845 46.17078063983585 2.9499740205689133
  endloop
endfacet
facet normal 8.433673688128637e-16 1.0 -3.3660551541795135e-15
  outer loop
    vertex -2.0158192928861527 47.42078063983587 0.9538020205689138
    vertex 17.974180707113845 47.42078063983585 2.9499740205689133
    vertex 17.974180707113845 47.42078063983585 0.9399740205689155
  endloop
endfacet
facet normal 8.433673688128637e-16 1.0 -3.3660551541795135e-15
  outer loop
    vertex 17.974180707113845 47.42078063983585 2.9499740205689133
    vertex -2.0158192928861527 47.42078063983587 0.9538020205689138
    vertex -2.0158192928861527 47.42078063983587 2.949974020568914
  endloop
endfacet
facet normal 1.0 -1.1190343184713873e-15 -1.0837478003979781e-31
  outer loop
    vertex 19.224180707113845 46.17078063983585 0.9399740205689155
    vertex 19.224180707113835 36.09078063983584 2.9499740205689133
    vertex 19.224180707113835 36.09078063983584 0.9399740205689141
  endloop
endfacet
facet normal 1.0 -1.1190343184713873e-15 -1.0837478003979781e-31
  outer loop
    vertex 19.224180707113835 36.09078063983584 2.9499740205689133
    vertex 19.224180707113845 46.17078063983585 0.9399740205689155
    vertex 19.224180707113845 46.17078063983585 2.9499740205689133
  endloop
endfacet
facet normal -1.128550868453386e-15 -1.0 5.900935913558782e-32
  outer loop
    vertex 17.974180707113838 34.84078063983584 2.9499740205689133
    vertex -2.0158192928861607 34.84078063983586 0.9414996163323749
    vertex 17.974180707113838 34.84078063983584 0.9399740205689141
  endloop
endfacet
facet normal -1.128550868453386e-15 -1.0 5.900935913558782e-32
  outer loop
    vertex -2.0158192928861607 34.84078063983586 0.9414996163323749
    vertex 17.974180707113838 34.84078063983584 2.9499740205689133
    vertex -2.0158192928861607 34.84078063983586 2.949974020568914
  endloop
endfacet
facet normal -0.06540312923014306 -0.9978589232386037 -0.0
  outer loop
    vertex 8.488232856772045 44.90741559919371 2.9499740205689133
    vertex 7.979180707113841 44.94078063983585 0.3399740205689137
    vertex 8.488232856772045 44.90741559919371 0.3399740205689137
  endloop
endfacet
facet normal -0.06540312923014306 -0.9978589232386037 -0.0
  outer loop
    vertex 7.979180707113841 44.94078063983585 0.3399740205689137
    vertex 8.488232856772045 44.90741559919371 2.9499740205689133
    vertex 7.979180707113841 44.94078063983585 2.9499740205689133
  endloop
endfacet
facet normal 0.0654031292301436 -0.9978589232386036 0.0
  outer loop
    vertex 7.979180707113841 44.94078063983585 2.9499740205689133
    vertex 7.470128557455641 44.90741559919371 0.3399740205689137
    vertex 7.979180707113841 44.94078063983585 0.3399740205689137
  endloop
endfacet
facet normal 0.0654031292301436 -0.9978589232386036 0.0
  outer loop
    vertex 7.470128557455641 44.90741559919371 0.3399740205689137
    vertex 7.979180707113841 44.94078063983585 2.9499740205689133
    vertex 7.470128557455641 44.90741559919371 2.9499740205689133
  endloop
endfacet
facet normal 0.19509032201613596 -0.9807852804032291 0.0
  outer loop
    vertex 7.470128557455641 44.90741559919371 2.9499740205689133
    vertex 6.969786431214012 44.807891362363215 0.3399740205689137
    vertex 7.470128557455641 44.90741559919371 0.3399740205689137
  endloop
endfacet
facet normal 0.19509032201613596 -0.9807852804032291 0.0
  outer loop
    vertex 6.969786431214012 44.807891362363215 0.3399740205689137
    vertex 7.470128557455641 44.90741559919371 2.9499740205689133
    vertex 6.969786431214012 44.807891362363215 2.9499740205689133
  endloop
endfacet
facet normal 0.32143946530315903 -0.9469301294951067 0.0
  outer loop
    vertex 6.969786431214012 44.807891362363215 2.9499740205689133
    vertex 6.486715320889992 44.64391081662987 0.3399740205689137
    vertex 6.969786431214012 44.807891362363215 0.3399740205689137
  endloop
endfacet
facet normal 0.32143946530315903 -0.9469301294951067 0.0
  outer loop
    vertex 6.486715320889992 44.64391081662987 0.3399740205689137
    vertex 6.969786431214012 44.807891362363215 2.9499740205689133
    vertex 6.486715320889992 44.64391081662987 2.9499740205689133
  endloop
endfacet
facet normal 0.4422886902190034 -0.8968727415326873 0.0
  outer loop
    vertex 6.486715320889992 44.64391081662987 2.9499740205689133
    vertex 6.029180707113843 44.41827971459516 0.3399740205689137
    vertex 6.486715320889992 44.64391081662987 0.3399740205689137
  endloop
endfacet
facet normal 0.4422886902190034 -0.8968727415326873 0.0
  outer loop
    vertex 6.029180707113843 44.41827971459516 0.3399740205689137
    vertex 6.486715320889992 44.64391081662987 2.9499740205689133
    vertex 6.029180707113843 44.41827971459516 2.9499740205689133
  endloop
endfacet
facet normal 0.5555702330196003 -0.8314696123025467 0.0
  outer loop
    vertex 6.029180707113843 44.41827971459516 2.9499740205689133
    vertex 5.605011133979834 44.13485866697167 0.3399740205689137
    vertex 6.029180707113843 44.41827971459516 0.3399740205689137
  endloop
endfacet
facet normal 0.5555702330196003 -0.8314696123025467 0.0
  outer loop
    vertex 5.605011133979834 44.13485866697167 0.3399740205689137
    vertex 6.029180707113843 44.41827971459516 2.9499740205689133
    vertex 5.605011133979834 44.13485866697167 2.9499740205689133
  endloop
endfacet
facet normal 0.6593458151000666 -0.7518398074789794 0.0
  outer loop
    vertex 5.605011133979834 44.13485866697167 2.9499740205689133
    vertex 5.221464260486309 43.798497086463385 0.3399740205689137
    vertex 5.605011133979834 44.13485866697167 0.3399740205689137
  endloop
endfacet
facet normal 0.6593458151000666 -0.7518398074789794 0.0
  outer loop
    vertex 5.221464260486309 43.798497086463385 0.3399740205689137
    vertex 5.605011133979834 44.13485866697167 2.9499740205689133
    vertex 5.221464260486309 43.798497086463385 2.9499740205689133
  endloop
endfacet
facet normal 0.7518398074789812 -0.6593458151000647 0.0
  outer loop
    vertex 5.221464260486309 43.798497086463385 0.3399740205689137
    vertex 4.8851026799780275 43.41495021296986 2.9499740205689133
    vertex 4.8851026799780275 43.41495021296986 0.3399740205689137
  endloop
endfacet
facet normal 0.7518398074789812 -0.6593458151000647 0.0
  outer loop
    vertex 4.8851026799780275 43.41495021296986 2.9499740205689133
    vertex 5.221464260486309 43.798497086463385 0.3399740205689137
    vertex 5.221464260486309 43.798497086463385 2.9499740205689133
  endloop
endfacet
facet normal 0.8314696123025447 -0.5555702330196031 0.0
  outer loop
    vertex 4.8851026799780275 43.41495021296986 0.3399740205689137
    vertex 4.601681632354534 42.99078063983585 2.9499740205689133
    vertex 4.601681632354534 42.99078063983585 0.3399740205689137
  endloop
endfacet
facet normal 0.8314696123025447 -0.5555702330196031 0.0
  outer loop
    vertex 4.601681632354534 42.99078063983585 2.9499740205689133
    vertex 4.8851026799780275 43.41495021296986 0.3399740205689137
    vertex 4.8851026799780275 43.41495021296986 2.9499740205689133
  endloop
endfacet
facet normal 0.8968727415326884 -0.44228869021900125 0.0
  outer loop
    vertex 4.601681632354534 42.99078063983585 0.3399740205689137
    vertex 4.3760505303198265 42.5332460260597 2.9499740205689133
    vertex 4.3760505303198265 42.5332460260597 0.3399740205689137
  endloop
endfacet
facet normal 0.8968727415326884 -0.44228869021900125 0.0
  outer loop
    vertex 4.3760505303198265 42.5332460260597 2.9499740205689133
    vertex 4.601681632354534 42.99078063983585 0.3399740205689137
    vertex 4.601681632354534 42.99078063983585 2.9499740205689133
  endloop
endfacet
facet normal 0.946930129495105 -0.32143946530316403 0.0
  outer loop
    vertex 4.3760505303198265 42.5332460260597 0.3399740205689137
    vertex 4.212069984586479 42.05017491573569 2.9499740205689133
    vertex 4.212069984586479 42.05017491573569 0.3399740205689137
  endloop
endfacet
facet normal 0.946930129495105 -0.32143946530316403 0.0
  outer loop
    vertex 4.212069984586479 42.05017491573569 2.9499740205689133
    vertex 4.3760505303198265 42.5332460260597 0.3399740205689137
    vertex 4.3760505303198265 42.5332460260597 2.9499740205689133
  endloop
endfacet
facet normal 0.9807852804032308 -0.1950903220161269 0.0
  outer loop
    vertex 4.212069984586479 42.05017491573569 0.3399740205689137
    vertex 4.112545747755985 41.549832789494054 2.9499740205689133
    vertex 4.112545747755985 41.549832789494054 0.3399740205689137
  endloop
endfacet
facet normal 0.9807852804032308 -0.1950903220161269 0.0
  outer loop
    vertex 4.112545747755985 41.549832789494054 2.9499740205689133
    vertex 4.212069984586479 42.05017491573569 0.3399740205689137
    vertex 4.212069984586479 42.05017491573569 2.9499740205689133
  endloop
endfacet
facet normal 0.9978589232386036 -0.0654031292301436 0.0
  outer loop
    vertex 4.112545747755985 41.549832789494054 0.3399740205689137
    vertex 4.079180707113845 41.04078063983585 2.9499740205689133
    vertex 4.079180707113845 41.04078063983585 0.3399740205689137
  endloop
endfacet
facet normal 0.9978589232386036 -0.0654031292301436 0.0
  outer loop
    vertex 4.079180707113845 41.04078063983585 2.9499740205689133
    vertex 4.112545747755985 41.549832789494054 0.3399740205689137
    vertex 4.112545747755985 41.549832789494054 2.9499740205689133
  endloop
endfacet
facet normal 0.9978589232386036 0.0654031292301436 0.0
  outer loop
    vertex 4.079180707113845 41.04078063983585 0.3399740205689137
    vertex 4.112545747755985 40.531728490177656 2.9499740205689133
    vertex 4.112545747755985 40.531728490177656 0.3399740205689137
  endloop
endfacet
facet normal 0.9978589232386036 0.0654031292301436 0.0
  outer loop
    vertex 4.112545747755985 40.531728490177656 2.9499740205689133
    vertex 4.079180707113845 41.04078063983585 0.3399740205689137
    vertex 4.079180707113845 41.04078063983585 2.9499740205689133
  endloop
endfacet
facet normal 0.9807852804032308 0.1950903220161269 0.0
  outer loop
    vertex 4.112545747755985 40.531728490177656 0.3399740205689137
    vertex 4.212069984586479 40.03138636393602 2.9499740205689133
    vertex 4.212069984586479 40.03138636393602 0.3399740205689137
  endloop
endfacet
facet normal 0.9807852804032308 0.1950903220161269 0.0
  outer loop
    vertex 4.212069984586479 40.03138636393602 2.9499740205689133
    vertex 4.112545747755985 40.531728490177656 0.3399740205689137
    vertex 4.112545747755985 40.531728490177656 2.9499740205689133
  endloop
endfacet
facet normal 0.946930129495105 0.32143946530316403 0.0
  outer loop
    vertex 4.212069984586479 40.03138636393602 0.3399740205689137
    vertex 4.3760505303198265 39.54831525361201 2.9499740205689133
    vertex 4.3760505303198265 39.54831525361201 0.3399740205689137
  endloop
endfacet
facet normal 0.946930129495105 0.32143946530316403 0.0
  outer loop
    vertex 4.3760505303198265 39.54831525361201 2.9499740205689133
    vertex 4.212069984586479 40.03138636393602 0.3399740205689137
    vertex 4.212069984586479 40.03138636393602 2.9499740205689133
  endloop
endfacet
facet normal 0.8968727415326884 0.44228869021900125 0.0
  outer loop
    vertex 4.3760505303198265 39.54831525361201 0.3399740205689137
    vertex 4.601681632354534 39.090780639835856 2.9499740205689133
    vertex 4.601681632354534 39.090780639835856 0.3399740205689137
  endloop
endfacet
facet normal 0.8968727415326884 0.44228869021900125 0.0
  outer loop
    vertex 4.601681632354534 39.090780639835856 2.9499740205689133
    vertex 4.3760505303198265 39.54831525361201 0.3399740205689137
    vertex 4.3760505303198265 39.54831525361201 2.9499740205689133
  endloop
endfacet
facet normal 0.8314696123025453 0.5555702330196022 0.0
  outer loop
    vertex 4.601681632354534 39.090780639835856 0.3399740205689137
    vertex 4.885102679978027 38.66661106670185 2.9499740205689133
    vertex 4.885102679978027 38.66661106670185 0.3399740205689137
  endloop
endfacet
facet normal 0.8314696123025453 0.5555702330196022 0.0
  outer loop
    vertex 4.885102679978027 38.66661106670185 2.9499740205689133
    vertex 4.601681632354534 39.090780639835856 0.3399740205689137
    vertex 4.601681632354534 39.090780639835856 2.9499740205689133
  endloop
endfacet
facet normal 0.7518398074789812 0.6593458151000647 0.0
  outer loop
    vertex 4.885102679978027 38.66661106670185 0.3399740205689137
    vertex 5.221464260486308 38.28306419320832 2.9499740205689133
    vertex 5.221464260486308 38.28306419320832 0.3399740205689137
  endloop
endfacet
facet normal 0.7518398074789812 0.6593458151000647 0.0
  outer loop
    vertex 5.221464260486308 38.28306419320832 2.9499740205689133
    vertex 4.885102679978027 38.66661106670185 0.3399740205689137
    vertex 4.885102679978027 38.66661106670185 2.9499740205689133
  endloop
endfacet
facet normal 0.6593458151000673 0.7518398074789788 0.0
  outer loop
    vertex 5.221464260486308 38.28306419320832 2.9499740205689133
    vertex 5.605011133979832 37.94670261270004 0.3399740205689137
    vertex 5.221464260486308 38.28306419320832 0.3399740205689137
  endloop
endfacet
facet normal 0.6593458151000673 0.7518398074789788 0.0
  outer loop
    vertex 5.605011133979832 37.94670261270004 0.3399740205689137
    vertex 5.221464260486308 38.28306419320832 2.9499740205689133
    vertex 5.605011133979832 37.94670261270004 2.9499740205689133
  endloop
endfacet
facet normal 0.5555702330196003 0.8314696123025467 0.0
  outer loop
    vertex 5.605011133979832 37.94670261270004 2.9499740205689133
    vertex 6.0291807071138415 37.663281565076545 0.3399740205689137
    vertex 5.605011133979832 37.94670261270004 0.3399740205689137
  endloop
endfacet
facet normal 0.5555702330196003 0.8314696123025467 0.0
  outer loop
    vertex 6.0291807071138415 37.663281565076545 0.3399740205689137
    vertex 5.605011133979832 37.94670261270004 2.9499740205689133
    vertex 6.0291807071138415 37.663281565076545 2.9499740205689133
  endloop
endfacet
facet normal 0.4422886902190034 0.8968727415326873 0.0
  outer loop
    vertex 6.0291807071138415 37.663281565076545 2.9499740205689133
    vertex 6.486715320889991 37.43765046304184 0.3399740205689137
    vertex 6.0291807071138415 37.663281565076545 0.3399740205689137
  endloop
endfacet
facet normal 0.4422886902190034 0.8968727415326873 0.0
  outer loop
    vertex 6.486715320889991 37.43765046304184 0.3399740205689137
    vertex 6.0291807071138415 37.663281565076545 2.9499740205689133
    vertex 6.486715320889991 37.43765046304184 2.9499740205689133
  endloop
endfacet
facet normal 0.32143946530315987 0.9469301294951062 0.0
  outer loop
    vertex 6.486715320889991 37.43765046304184 2.9499740205689133
    vertex 6.9697864312140085 37.273669917308496 0.3399740205689137
    vertex 6.486715320889991 37.43765046304184 0.3399740205689137
  endloop
endfacet
facet normal 0.32143946530315987 0.9469301294951062 0.0
  outer loop
    vertex 6.9697864312140085 37.273669917308496 0.3399740205689137
    vertex 6.486715320889991 37.43765046304184 2.9499740205689133
    vertex 6.9697864312140085 37.273669917308496 2.9499740205689133
  endloop
endfacet
facet normal 0.19509032201613646 0.9807852804032289 0.0
  outer loop
    vertex 6.9697864312140085 37.273669917308496 2.9499740205689133
    vertex 7.470128557455636 37.17414568047799 0.3399740205689137
    vertex 6.9697864312140085 37.273669917308496 0.3399740205689137
  endloop
endfacet
facet normal 0.19509032201613646 0.9807852804032289 0.0
  outer loop
    vertex 7.470128557455636 37.17414568047799 0.3399740205689137
    vertex 6.9697864312140085 37.273669917308496 2.9499740205689133
    vertex 7.470128557455636 37.17414568047799 2.9499740205689133
  endloop
endfacet
facet normal 0.06540312923014306 0.9978589232386037 0.0
  outer loop
    vertex 7.470128557455636 37.17414568047799 2.9499740205689133
    vertex 7.979180707113841 37.14078063983585 0.3399740205689137
    vertex 7.470128557455636 37.17414568047799 0.3399740205689137
  endloop
endfacet
facet normal 0.06540312923014306 0.9978589232386037 0.0
  outer loop
    vertex 7.979180707113841 37.14078063983585 0.3399740205689137
    vertex 7.470128557455636 37.17414568047799 2.9499740205689133
    vertex 7.979180707113841 37.14078063983585 2.9499740205689133
  endloop
endfacet
facet normal -0.0654031292301436 0.9978589232386036 0.0
  outer loop
    vertex 7.979180707113841 37.14078063983585 2.9499740205689133
    vertex 8.488232856772042 37.17414568047799 0.3399740205689137
    vertex 7.979180707113841 37.14078063983585 0.3399740205689137
  endloop
endfacet
facet normal -0.0654031292301436 0.9978589232386036 0.0
  outer loop
    vertex 8.488232856772042 37.17414568047799 0.3399740205689137
    vertex 7.979180707113841 37.14078063983585 2.9499740205689133
    vertex 8.488232856772042 37.17414568047799 2.9499740205689133
  endloop
endfacet
facet normal -0.19509032201613596 0.9807852804032291 0.0
  outer loop
    vertex 8.488232856772042 37.17414568047799 2.9499740205689133
    vertex 8.98857498301367 37.273669917308496 0.3399740205689137
    vertex 8.488232856772042 37.17414568047799 0.3399740205689137
  endloop
endfacet
facet normal -0.19509032201613596 0.9807852804032291 0.0
  outer loop
    vertex 8.98857498301367 37.273669917308496 0.3399740205689137
    vertex 8.488232856772042 37.17414568047799 2.9499740205689133
    vertex 8.98857498301367 37.273669917308496 2.9499740205689133
  endloop
endfacet
facet normal -0.32143946530315903 0.9469301294951067 0.0
  outer loop
    vertex 8.98857498301367 37.273669917308496 2.9499740205689133
    vertex 9.47164609333769 37.43765046304184 0.3399740205689137
    vertex 8.98857498301367 37.273669917308496 0.3399740205689137
  endloop
endfacet
facet normal -0.32143946530315903 0.9469301294951067 0.0
  outer loop
    vertex 9.47164609333769 37.43765046304184 0.3399740205689137
    vertex 8.98857498301367 37.273669917308496 2.9499740205689133
    vertex 9.47164609333769 37.43765046304184 2.9499740205689133
  endloop
endfacet
facet normal -0.4422886902190034 0.8968727415326873 0.0
  outer loop
    vertex 9.47164609333769 37.43765046304184 2.9499740205689133
    vertex 9.929180707113838 37.663281565076545 0.3399740205689137
    vertex 9.47164609333769 37.43765046304184 0.3399740205689137
  endloop
endfacet
facet normal -0.4422886902190034 0.8968727415326873 0.0
  outer loop
    vertex 9.929180707113838 37.663281565076545 0.3399740205689137
    vertex 9.47164609333769 37.43765046304184 2.9499740205689133
    vertex 9.929180707113838 37.663281565076545 2.9499740205689133
  endloop
endfacet
facet normal -0.5555702330196003 0.8314696123025467 0.0
  outer loop
    vertex 9.929180707113838 37.663281565076545 2.9499740205689133
    vertex 10.353350280247849 37.94670261270004 0.3399740205689137
    vertex 9.929180707113838 37.663281565076545 0.3399740205689137
  endloop
endfacet
facet normal -0.5555702330196003 0.8314696123025467 0.0
  outer loop
    vertex 10.353350280247849 37.94670261270004 0.3399740205689137
    vertex 9.929180707113838 37.663281565076545 2.9499740205689133
    vertex 10.353350280247849 37.94670261270004 2.9499740205689133
  endloop
endfacet
facet normal -0.6593458151000673 0.7518398074789788 0.0
  outer loop
    vertex 10.353350280247849 37.94670261270004 2.9499740205689133
    vertex 10.736897153741372 38.28306419320832 0.3399740205689137
    vertex 10.353350280247849 37.94670261270004 0.3399740205689137
  endloop
endfacet
facet normal -0.6593458151000673 0.7518398074789788 0.0
  outer loop
    vertex 10.736897153741372 38.28306419320832 0.3399740205689137
    vertex 10.353350280247849 37.94670261270004 2.9499740205689133
    vertex 10.736897153741372 38.28306419320832 2.9499740205689133
  endloop
endfacet
facet normal -0.7518398074789797 0.6593458151000663 0.0
  outer loop
    vertex 11.073258734249654 38.66661106670185 2.9499740205689133
    vertex 10.736897153741372 38.28306419320832 0.3399740205689137
    vertex 10.736897153741372 38.28306419320832 2.9499740205689133
  endloop
endfacet
facet normal -0.7518398074789797 0.6593458151000663 0.0
  outer loop
    vertex 10.736897153741372 38.28306419320832 0.3399740205689137
    vertex 11.073258734249654 38.66661106670185 2.9499740205689133
    vertex 11.073258734249654 38.66661106670185 0.3399740205689137
  endloop
endfacet
facet normal -0.8314696123025453 0.5555702330196022 0.0
  outer loop
    vertex 11.356679781873147 39.090780639835856 2.9499740205689133
    vertex 11.073258734249654 38.66661106670185 0.3399740205689137
    vertex 11.073258734249654 38.66661106670185 2.9499740205689133
  endloop
endfacet
facet normal -0.8314696123025453 0.5555702330196022 0.0
  outer loop
    vertex 11.073258734249654 38.66661106670185 0.3399740205689137
    vertex 11.356679781873147 39.090780639835856 2.9499740205689133
    vertex 11.356679781873147 39.090780639835856 0.3399740205689137
  endloop
endfacet
facet normal -0.8968727415326884 0.44228869021900125 0.0
  outer loop
    vertex 11.582310883907855 39.54831525361201 2.9499740205689133
    vertex 11.356679781873147 39.090780639835856 0.3399740205689137
    vertex 11.356679781873147 39.090780639835856 2.9499740205689133
  endloop
endfacet
facet normal -0.8968727415326884 0.44228869021900125 0.0
  outer loop
    vertex 11.356679781873147 39.090780639835856 0.3399740205689137
    vertex 11.582310883907855 39.54831525361201 2.9499740205689133
    vertex 11.582310883907855 39.54831525361201 0.3399740205689137
  endloop
endfacet
facet normal -0.946930129495105 0.32143946530316403 0.0
  outer loop
    vertex 11.746291429641204 40.03138636393602 2.9499740205689133
    vertex 11.582310883907855 39.54831525361201 0.3399740205689137
    vertex 11.582310883907855 39.54831525361201 2.9499740205689133
  endloop
endfacet
facet normal -0.946930129495105 0.32143946530316403 0.0
  outer loop
    vertex 11.582310883907855 39.54831525361201 0.3399740205689137
    vertex 11.746291429641204 40.03138636393602 2.9499740205689133
    vertex 11.746291429641204 40.03138636393602 0.3399740205689137
  endloop
endfacet
facet normal -0.9807852804032308 0.1950903220161269 0.0
  outer loop
    vertex 11.845815666471697 40.531728490177656 2.9499740205689133
    vertex 11.746291429641204 40.03138636393602 0.3399740205689137
    vertex 11.746291429641204 40.03138636393602 2.9499740205689133
  endloop
endfacet
facet normal -0.9807852804032308 0.1950903220161269 0.0
  outer loop
    vertex 11.746291429641204 40.03138636393602 0.3399740205689137
    vertex 11.845815666471697 40.531728490177656 2.9499740205689133
    vertex 11.845815666471697 40.531728490177656 0.3399740205689137
  endloop
endfacet
facet normal -0.9978589232386036 0.0654031292301436 0.0
  outer loop
    vertex 11.879180707113836 41.04078063983585 2.9499740205689133
    vertex 11.845815666471697 40.531728490177656 0.3399740205689137
    vertex 11.845815666471697 40.531728490177656 2.9499740205689133
  endloop
endfacet
facet normal -0.9978589232386036 0.0654031292301436 0.0
  outer loop
    vertex 11.845815666471697 40.531728490177656 0.3399740205689137
    vertex 11.879180707113836 41.04078063983585 2.9499740205689133
    vertex 11.879180707113836 41.04078063983585 0.3399740205689137
  endloop
endfacet
facet normal -0.9978589232386036 -0.0654031292301436 -0.0
  outer loop
    vertex 11.845815666471697 41.549832789494054 2.9499740205689133
    vertex 11.879180707113836 41.04078063983585 0.3399740205689137
    vertex 11.879180707113836 41.04078063983585 2.9499740205689133
  endloop
endfacet
facet normal -0.9978589232386036 -0.0654031292301436 -0.0
  outer loop
    vertex 11.879180707113836 41.04078063983585 0.3399740205689137
    vertex 11.845815666471697 41.549832789494054 2.9499740205689133
    vertex 11.872626360832314 41.14078063983584 0.3399740205689186
  endloop
endfacet
facet normal -0.9978589232386036 -0.0654031292301436 -0.0
  outer loop
    vertex 11.872626360832314 41.14078063983584 0.3399740205689186
    vertex 11.845815666471697 41.549832789494054 2.9499740205689133
    vertex 11.845815666471697 41.549832789494054 0.3399740205689137
  endloop
endfacet
facet normal -0.9807852804032308 -0.1950903220161269 -0.0
  outer loop
    vertex 11.746291429641204 42.05017491573569 2.9499740205689133
    vertex 11.845815666471697 41.549832789494054 0.3399740205689137
    vertex 11.845815666471697 41.549832789494054 2.9499740205689133
  endloop
endfacet
facet normal -0.9807852804032308 -0.1950903220161269 -0.0
  outer loop
    vertex 11.845815666471697 41.549832789494054 0.3399740205689137
    vertex 11.746291429641204 42.05017491573569 2.9499740205689133
    vertex 11.746291429641204 42.05017491573569 0.3399740205689137
  endloop
endfacet
facet normal -0.946930129495105 -0.32143946530316403 -0.0
  outer loop
    vertex 11.582310883907855 42.5332460260597 2.9499740205689133
    vertex 11.746291429641204 42.05017491573569 0.3399740205689137
    vertex 11.746291429641204 42.05017491573569 2.9499740205689133
  endloop
endfacet
facet normal -0.946930129495105 -0.32143946530316403 -0.0
  outer loop
    vertex 11.746291429641204 42.05017491573569 0.3399740205689137
    vertex 11.582310883907855 42.5332460260597 2.9499740205689133
    vertex 11.582310883907855 42.5332460260597 0.3399740205689137
  endloop
endfacet
facet normal -0.8968727415326884 -0.44228869021900125 -0.0
  outer loop
    vertex 11.356679781873147 42.99078063983585 2.9499740205689133
    vertex 11.582310883907855 42.5332460260597 0.3399740205689137
    vertex 11.582310883907855 42.5332460260597 2.9499740205689133
  endloop
endfacet
facet normal -0.8968727415326884 -0.44228869021900125 -0.0
  outer loop
    vertex 11.582310883907855 42.5332460260597 0.3399740205689137
    vertex 11.356679781873147 42.99078063983585 2.9499740205689133
    vertex 11.356679781873147 42.99078063983585 0.3399740205689137
  endloop
endfacet
facet normal -0.8314696123025453 -0.5555702330196022 -0.0
  outer loop
    vertex 11.073258734249654 43.41495021296986 2.9499740205689133
    vertex 11.356679781873147 42.99078063983585 0.3399740205689137
    vertex 11.356679781873147 42.99078063983585 2.9499740205689133
  endloop
endfacet
facet normal -0.8314696123025453 -0.5555702330196022 -0.0
  outer loop
    vertex 11.356679781873147 42.99078063983585 0.3399740205689137
    vertex 11.073258734249654 43.41495021296986 2.9499740205689133
    vertex 11.073258734249654 43.41495021296986 0.3399740205689137
  endloop
endfacet
facet normal -0.7518398074789812 -0.6593458151000647 -0.0
  outer loop
    vertex 10.736897153741374 43.798497086463385 2.9499740205689133
    vertex 11.073258734249654 43.41495021296986 0.3399740205689137
    vertex 11.073258734249654 43.41495021296986 2.9499740205689133
  endloop
endfacet
facet normal -0.7518398074789812 -0.6593458151000647 -0.0
  outer loop
    vertex 11.073258734249654 43.41495021296986 0.3399740205689137
    vertex 10.736897153741374 43.798497086463385 2.9499740205689133
    vertex 10.736897153741374 43.798497086463385 0.3399740205689137
  endloop
endfacet
facet normal -0.6593458151000673 -0.7518398074789788 -0.0
  outer loop
    vertex 10.736897153741374 43.798497086463385 2.9499740205689133
    vertex 10.35335028024785 44.13485866697167 0.3399740205689137
    vertex 10.736897153741374 43.798497086463385 0.3399740205689137
  endloop
endfacet
facet normal -0.6593458151000673 -0.7518398074789788 -0.0
  outer loop
    vertex 10.35335028024785 44.13485866697167 0.3399740205689137
    vertex 10.736897153741374 43.798497086463385 2.9499740205689133
    vertex 10.35335028024785 44.13485866697167 2.9499740205689133
  endloop
endfacet
facet normal -0.5555702330196003 -0.8314696123025467 -0.0
  outer loop
    vertex 10.35335028024785 44.13485866697167 2.9499740205689133
    vertex 9.92918070711384 44.41827971459516 0.3399740205689137
    vertex 10.35335028024785 44.13485866697167 0.3399740205689137
  endloop
endfacet
facet normal -0.5555702330196003 -0.8314696123025467 -0.0
  outer loop
    vertex 9.92918070711384 44.41827971459516 0.3399740205689137
    vertex 10.35335028024785 44.13485866697167 2.9499740205689133
    vertex 9.92918070711384 44.41827971459516 2.9499740205689133
  endloop
endfacet
facet normal -0.4422886902190034 -0.8968727415326873 -0.0
  outer loop
    vertex 9.92918070711384 44.41827971459516 2.9499740205689133
    vertex 9.471646093337691 44.64391081662987 0.3399740205689137
    vertex 9.92918070711384 44.41827971459516 0.3399740205689137
  endloop
endfacet
facet normal -0.4422886902190034 -0.8968727415326873 -0.0
  outer loop
    vertex 9.471646093337691 44.64391081662987 0.3399740205689137
    vertex 9.92918070711384 44.41827971459516 2.9499740205689133
    vertex 9.471646093337691 44.64391081662987 2.9499740205689133
  endloop
endfacet
facet normal -0.32143946530315987 -0.9469301294951062 -0.0
  outer loop
    vertex 9.471646093337691 44.64391081662987 2.9499740205689133
    vertex 8.988574983013672 44.807891362363215 0.3399740205689137
    vertex 9.471646093337691 44.64391081662987 0.3399740205689137
  endloop
endfacet
facet normal -0.32143946530315987 -0.9469301294951062 -0.0
  outer loop
    vertex 8.988574983013672 44.807891362363215 0.3399740205689137
    vertex 9.471646093337691 44.64391081662987 2.9499740205689133
    vertex 8.988574983013672 44.807891362363215 2.9499740205689133
  endloop
endfacet
facet normal -0.19509032201613646 -0.9807852804032289 -0.0
  outer loop
    vertex 8.988574983013672 44.807891362363215 2.9499740205689133
    vertex 8.488232856772045 44.90741559919371 0.3399740205689137
    vertex 8.988574983013672 44.807891362363215 0.3399740205689137
  endloop
endfacet
facet normal -0.19509032201613646 -0.9807852804032289 -0.0
  outer loop
    vertex 8.488232856772045 44.90741559919371 0.3399740205689137
    vertex 8.988574983013672 44.807891362363215 2.9499740205689133
    vertex 8.488232856772045 44.90741559919371 2.9499740205689133
  endloop
endfacet
facet normal 1.0 -7.69081767967608e-16 -2.2451328503040154e-31
  outer loop
    vertex 25.074180707113843 46.64078063983584 0.3399740205689249
    vertex 25.074180707113836 35.64078063983584 0.936489417486814
    vertex 25.074180707113836 35.64078063983584 0.33997402056892206
  endloop
endfacet
facet normal 1.0 -7.69081767967608e-16 -2.2451328503040154e-31
  outer loop
    vertex 25.074180707113836 35.64078063983584 0.936489417486814
    vertex 25.074180707113843 46.64078063983584 0.3399740205689249
    vertex 25.074180707113843 46.64078063983584 0.9389979668260328
  endloop
endfacet
facet normal -1.0 7.116180180352362e-16 3.233710763731692e-15
  outer loop
    vertex -9.065819292886154 46.64078063983584 0.9181030205689306
    vertex -9.065819292886161 35.64078063983584 0.339974020568929
    vertex -9.065819292886161 35.64078063983584 0.9389075773915407
  endloop
endfacet
facet normal -1.0 7.116180180352362e-16 3.233710763731692e-15
  outer loop
    vertex -9.065819292886161 35.64078063983584 0.339974020568929
    vertex -9.065819292886154 46.64078063983584 0.9181030205689306
    vertex -9.065819292886154 46.64078063983584 0.33997402056893095
  endloop
endfacet
facet normal 0.13052619222005613 -0.9914448613738098 0.0
  outer loop
    vertex 18.297704513491986 34.88337335697451 2.9499740205689133
    vertex 17.974180707113838 34.84078063983584 0.9399740205689141
    vertex 18.297704513491986 34.88337335697451 0.9399740205689141
  endloop
endfacet
facet normal 0.13052619222005613 -0.9914448613738098 0.0
  outer loop
    vertex 17.974180707113838 34.84078063983584 0.9399740205689141
    vertex 18.297704513491986 34.88337335697451 2.9499740205689133
    vertex 17.974180707113838 34.84078063983584 2.9499740205689133
  endloop
endfacet
facet normal 0.9914448613738109 -0.13052619222004763 -0.0
  outer loop
    vertex 19.224180707113835 36.09078063983584 0.9399740205689141
    vertex 19.18158798997517 35.76725683345769 2.9499740205689133
    vertex 19.18158798997517 35.76725683345769 0.9399740205689141
  endloop
endfacet
facet normal 0.9914448613738109 -0.13052619222004763 -0.0
  outer loop
    vertex 19.18158798997517 35.76725683345769 2.9499740205689133
    vertex 19.224180707113835 36.09078063983584 0.9399740205689141
    vertex 19.224180707113835 36.09078063983584 2.9499740205689133
  endloop
endfacet
facet normal 0.9238795325112866 -0.3826834323650902 -0.0
  outer loop
    vertex 19.18158798997517 35.76725683345769 0.9399740205689141
    vertex 19.056712461844384 35.46578063983584 2.9499740205689133
    vertex 19.056712461844384 35.46578063983584 0.9399740205689141
  endloop
endfacet
facet normal 0.9238795325112866 -0.3826834323650902 -0.0
  outer loop
    vertex 19.056712461844384 35.46578063983584 2.9499740205689133
    vertex 19.18158798997517 35.76725683345769 0.9399740205689141
    vertex 19.18158798997517 35.76725683345769 2.9499740205689133
  endloop
endfacet
facet normal 0.793353340291233 -0.6087614290087238 -0.0
  outer loop
    vertex 19.056712461844384 35.46578063983584 0.9399740205689141
    vertex 18.858064183597023 35.20689716335266 2.9499740205689133
    vertex 18.858064183597023 35.20689716335266 0.9399740205689141
  endloop
endfacet
facet normal 0.793353340291233 -0.6087614290087238 -0.0
  outer loop
    vertex 18.858064183597023 35.20689716335266 2.9499740205689133
    vertex 19.056712461844384 35.46578063983584 0.9399740205689141
    vertex 19.056712461844384 35.46578063983584 2.9499740205689133
  endloop
endfacet
facet normal 0.6087614290087251 -0.793353340291232 -0.0
  outer loop
    vertex 18.858064183597023 35.20689716335266 2.9499740205689133
    vertex 18.599180707113835 35.008248885105296 0.9399740205689141
    vertex 18.858064183597023 35.20689716335266 0.9399740205689141
  endloop
endfacet
facet normal 0.6087614290087251 -0.793353340291232 -0.0
  outer loop
    vertex 18.599180707113835 35.008248885105296 0.9399740205689141
    vertex 18.858064183597023 35.20689716335266 2.9499740205689133
    vertex 18.599180707113835 35.008248885105296 2.9499740205689133
  endloop
endfacet
facet normal 0.38268343236508284 -0.9238795325112896 -0.0
  outer loop
    vertex 18.599180707113835 35.008248885105296 2.9499740205689133
    vertex 18.297704513491986 34.88337335697451 0.9399740205689141
    vertex 18.599180707113835 35.008248885105296 0.9399740205689141
  endloop
endfacet
facet normal 0.38268343236508284 -0.9238795325112896 -0.0
  outer loop
    vertex 18.297704513491986 34.88337335697451 0.9399740205689141
    vertex 18.599180707113835 35.008248885105296 2.9499740205689133
    vertex 18.297704513491986 34.88337335697451 2.9499740205689133
  endloop
endfacet
facet normal 0.13052619222003914 0.991444861373812 -0.0
  outer loop
    vertex 17.974180707113845 47.42078063983585 2.9499740205689133
    vertex 18.297704513491997 47.37818792269719 0.9399740205689155
    vertex 17.974180707113845 47.42078063983585 0.9399740205689155
  endloop
endfacet
facet normal 0.13052619222003914 0.991444861373812 -0.0
  outer loop
    vertex 18.297704513491997 47.37818792269719 0.9399740205689155
    vertex 17.974180707113845 47.42078063983585 2.9499740205689133
    vertex 18.297704513491997 47.37818792269719 2.9499740205689133
  endloop
endfacet
facet normal 0.3826834323650976 0.9238795325112836 0.0
  outer loop
    vertex 18.297704513491997 47.37818792269719 2.9499740205689133
    vertex 18.599180707113845 47.25331239456639 0.9399740205689155
    vertex 18.297704513491997 47.37818792269719 0.9399740205689155
  endloop
endfacet
facet normal 0.3826834323650976 0.9238795325112836 0.0
  outer loop
    vertex 18.599180707113845 47.25331239456639 0.9399740205689155
    vertex 18.297704513491997 47.37818792269719 2.9499740205689133
    vertex 18.599180707113845 47.25331239456639 2.9499740205689133
  endloop
endfacet
facet normal 0.6087614290087142 0.7933533402912402 0.0
  outer loop
    vertex 18.599180707113845 47.25331239456639 2.9499740205689133
    vertex 18.85806418359703 47.05466411631903 0.9399740205689155
    vertex 18.599180707113845 47.25331239456639 0.9399740205689155
  endloop
endfacet
facet normal 0.6087614290087142 0.7933533402912402 0.0
  outer loop
    vertex 18.85806418359703 47.05466411631903 0.9399740205689155
    vertex 18.599180707113845 47.25331239456639 2.9499740205689133
    vertex 18.85806418359703 47.05466411631903 2.9499740205689133
  endloop
endfacet
facet normal 0.7933533402912393 0.6087614290087154 0.0
  outer loop
    vertex 18.85806418359703 47.05466411631903 0.9399740205689155
    vertex 19.056712461844395 46.79578063983585 2.9499740205689133
    vertex 19.056712461844395 46.79578063983585 0.9399740205689155
  endloop
endfacet
facet normal 0.7933533402912393 0.6087614290087154 0.0
  outer loop
    vertex 19.056712461844395 46.79578063983585 2.9499740205689133
    vertex 18.85806418359703 47.05466411631903 0.9399740205689155
    vertex 18.85806418359703 47.05466411631903 2.9499740205689133
  endloop
endfacet
facet normal 0.9238795325112866 0.3826834323650902 0.0
  outer loop
    vertex 19.056712461844395 46.79578063983585 0.9399740205689155
    vertex 19.18158798997518 46.494304446213995 2.9499740205689133
    vertex 19.18158798997518 46.494304446213995 0.9399740205689155
  endloop
endfacet
facet normal 0.9238795325112866 0.3826834323650902 0.0
  outer loop
    vertex 19.18158798997518 46.494304446213995 2.9499740205689133
    vertex 19.056712461844395 46.79578063983585 0.9399740205689155
    vertex 19.056712461844395 46.79578063983585 2.9499740205689133
  endloop
endfacet
facet normal 0.9914448613738098 0.13052619222005613 -0.0
  outer loop
    vertex 19.18158798997518 46.494304446213995 0.9399740205689155
    vertex 19.224180707113845 46.17078063983585 2.9499740205689133
    vertex 19.224180707113845 46.17078063983585 0.9399740205689155
  endloop
endfacet
facet normal 0.9914448613738098 0.13052619222005613 -0.0
  outer loop
    vertex 19.224180707113845 46.17078063983585 2.9499740205689133
    vertex 19.18158798997518 46.494304446213995 0.9399740205689155
    vertex 19.18158798997518 46.494304446213995 2.9499740205689133
  endloop
endfacet
facet normal -0.130526192220056 0.9914448613738099 -0.0
  outer loop
    vertex -2.339343099264304 47.3781879226972 2.949974020568914
    vertex -2.0158192928861527 47.42078063983587 0.9538020205689138
    vertex -2.339343099264304 47.3781879226972 0.9538020205689138
  endloop
endfacet
facet normal -0.130526192220056 0.9914448613738099 -0.0
  outer loop
    vertex -2.0158192928861527 47.42078063983587 0.9538020205689138
    vertex -2.339343099264304 47.3781879226972 2.949974020568914
    vertex -2.0158192928861527 47.42078063983587 2.949974020568914
  endloop
endfacet
facet normal -0.9914448613738104 0.13052619222005188 -0.0
  outer loop
    vertex -3.223226575747487 46.49430444621402 2.949974020568914
    vertex -3.265819292886152 46.17078063983587 0.9538020205689138
    vertex -3.265819292886152 46.17078063983587 2.949974020568914
  endloop
endfacet
facet normal -0.9914448613738104 0.13052619222005188 -0.0
  outer loop
    vertex -3.265819292886152 46.17078063983587 0.9538020205689138
    vertex -3.223226575747487 46.49430444621402 2.949974020568914
    vertex -3.223226575747487 46.49430444621402 0.9538020205689138
  endloop
endfacet
facet normal -0.9238795325112866 0.3826834323650902 -0.0
  outer loop
    vertex -3.0983510476167 46.79578063983587 2.949974020568914
    vertex -3.223226575747487 46.49430444621402 0.9538020205689138
    vertex -3.223226575747487 46.49430444621402 2.949974020568914
  endloop
endfacet
facet normal -0.9238795325112866 0.3826834323650902 -0.0
  outer loop
    vertex -3.223226575747487 46.49430444621402 0.9538020205689138
    vertex -3.0983510476167 46.79578063983587 2.949974020568914
    vertex -3.0983510476167 46.79578063983587 0.9538020205689138
  endloop
endfacet
facet normal -0.7933533402912393 0.6087614290087154 -0.0
  outer loop
    vertex -2.8997027693693362 47.05466411631905 2.949974020568914
    vertex -3.0983510476167 46.79578063983587 0.9538020205689138
    vertex -3.0983510476167 46.79578063983587 2.949974020568914
  endloop
endfacet
facet normal -0.7933533402912393 0.6087614290087154 -0.0
  outer loop
    vertex -3.0983510476167 46.79578063983587 0.9538020205689138
    vertex -2.8997027693693362 47.05466411631905 2.949974020568914
    vertex -2.8997027693693362 47.05466411631905 0.9538020205689138
  endloop
endfacet
facet normal -0.6087614290087152 0.7933533402912393 -0.0
  outer loop
    vertex -2.8997027693693362 47.05466411631905 2.949974020568914
    vertex -2.6408192928861522 47.253312394566414 0.9538020205689138
    vertex -2.8997027693693362 47.05466411631905 0.9538020205689138
  endloop
endfacet
facet normal -0.6087614290087152 0.7933533402912393 -0.0
  outer loop
    vertex -2.6408192928861522 47.253312394566414 0.9538020205689138
    vertex -2.8997027693693362 47.05466411631905 2.949974020568914
    vertex -2.6408192928861522 47.253312394566414 2.949974020568914
  endloop
endfacet
facet normal -0.38268343236508257 0.92387953251129 -0.0
  outer loop
    vertex -2.6408192928861522 47.253312394566414 2.949974020568914
    vertex -2.339343099264304 47.3781879226972 0.9538020205689138
    vertex -2.6408192928861522 47.253312394566414 0.9538020205689138
  endloop
endfacet
facet normal -0.38268343236508257 0.92387953251129 -0.0
  outer loop
    vertex -2.339343099264304 47.3781879226972 0.9538020205689138
    vertex -2.6408192928861522 47.253312394566414 2.949974020568914
    vertex -2.339343099264304 47.3781879226972 2.949974020568914
  endloop
endfacet
facet normal -0.130526192220039 -0.991444861373812 1.0744684976304257e-18
  outer loop
    vertex -2.0158192928861607 34.84078063983586 2.949974020568914
    vertex -2.339343099264312 34.88337335697452 0.9414996163323749
    vertex -2.0158192928861607 34.84078063983586 0.9414996163323749
  endloop
endfacet
facet normal -0.130526192220039 -0.991444861373812 1.0744684976304257e-18
  outer loop
    vertex -2.339343099264312 34.88337335697452 0.9414996163323749
    vertex -2.0158192928861607 34.84078063983586 2.949974020568914
    vertex -2.339343099264312 34.88337335697452 2.949974020568914
  endloop
endfacet
facet normal -0.3826834323650969 -0.923879532511284 -0.0
  outer loop
    vertex -2.339343099264312 34.88337335697452 2.949974020568914
    vertex -2.6408192928861607 35.00824888510532 0.9414996163323749
    vertex -2.339343099264312 34.88337335697452 0.9414996163323749
  endloop
endfacet
facet normal -0.3826834323650969 -0.923879532511284 -0.0
  outer loop
    vertex -2.6408192928861607 35.00824888510532 0.9414996163323749
    vertex -2.339343099264312 34.88337335697452 2.949974020568914
    vertex -2.6408192928861607 35.00824888510532 2.949974020568914
  endloop
endfacet
facet normal -0.6087614290087142 -0.7933533402912402 -0.0
  outer loop
    vertex -2.6408192928861607 35.00824888510532 2.949974020568914
    vertex -2.8997027693693456 35.20689716335268 0.9414996163323749
    vertex -2.6408192928861607 35.00824888510532 0.9414996163323749
  endloop
endfacet
facet normal -0.6087614290087142 -0.7933533402912402 -0.0
  outer loop
    vertex -2.8997027693693456 35.20689716335268 0.9414996163323749
    vertex -2.6408192928861607 35.00824888510532 2.949974020568914
    vertex -2.8997027693693456 35.20689716335268 2.949974020568914
  endloop
endfacet
facet normal -0.7933533402912393 -0.6087614290087154 -0.0
  outer loop
    vertex -3.0983510476167093 35.46578063983586 2.949974020568914
    vertex -2.8997027693693456 35.20689716335268 0.9414996163323749
    vertex -2.8997027693693456 35.20689716335268 2.949974020568914
  endloop
endfacet
facet normal -0.7933533402912393 -0.6087614290087154 -0.0
  outer loop
    vertex -2.8997027693693456 35.20689716335268 0.9414996163323749
    vertex -3.0983510476167093 35.46578063983586 2.949974020568914
    vertex -3.0983510476167093 35.46578063983586 0.9414996163323749
  endloop
endfacet
facet normal -0.923879532511286 -0.3826834323650921 -0.0
  outer loop
    vertex -3.223226575747497 35.767256833457715 2.949974020568914
    vertex -3.0983510476167093 35.46578063983586 0.9414996163323749
    vertex -3.0983510476167093 35.46578063983586 2.949974020568914
  endloop
endfacet
facet normal -0.923879532511286 -0.3826834323650921 -0.0
  outer loop
    vertex -3.0983510476167093 35.46578063983586 0.9414996163323749
    vertex -3.223226575747497 35.767256833457715 2.949974020568914
    vertex -3.223226575747497 35.767256833457715 0.9414996163323749
  endloop
endfacet
facet normal -0.9914448613738104 -0.13052619222005188 -0.0
  outer loop
    vertex -3.2658192928861616 36.09078063983586 2.949974020568914
    vertex -3.223226575747497 35.767256833457715 0.9414996163323749
    vertex -3.223226575747497 35.767256833457715 2.949974020568914
  endloop
endfacet
facet normal -0.9914448613738104 -0.13052619222005188 -0.0
  outer loop
    vertex -3.223226575747497 35.767256833457715 0.9414996163323749
    vertex -3.2658192928861616 36.09078063983586 2.949974020568914
    vertex -3.2658192928861616 36.09078063983586 0.9414996163323749
  endloop
endfacet
facet normal -1.0 9.791550286624639e-16 3.997101788798074e-32
  outer loop
    vertex -3.265819292886152 46.17078063983587 2.949974020568914
    vertex -3.2658192928861616 36.09078063983586 0.9414996163323749
    vertex -3.2658192928861616 36.09078063983586 2.949974020568914
  endloop
endfacet
facet normal -1.0 9.791550286624639e-16 3.997101788798074e-32
  outer loop
    vertex -3.2658192928861616 36.09078063983586 0.9414996163323749
    vertex -3.265819292886152 46.17078063983587 2.949974020568914
    vertex -3.265819292886152 46.17078063983587 0.9538020205689138
  endloop
endfacet
facet normal 0.47173196856497224 -0.8817419973177052 -3.9866100137287067e-17
  outer loop
    vertex 25.074180707113836 35.64078063983584 0.33997402056892206
    vertex 20.924657744407448 33.420785854787916 0.9364894174868019
    vertex 20.924657744407448 33.420785854787916 0.33997402056891474
  endloop
endfacet
facet normal 0.47173196856497224 -0.8817419973177052 -3.9866100137287067e-17
  outer loop
    vertex 20.924657744407448 33.420785854787916 0.9364894174868019
    vertex 25.074180707113836 35.64078063983584 0.33997402056892206
    vertex 25.074180707113836 35.64078063983584 0.936489417486814
  endloop
endfacet
facet normal -0.4717319685649711 -0.881741997317706 1.3107039495161907e-16
  outer loop
    vertex -4.916296330179759 33.420785854787916 0.9364894174868089
    vertex -9.065819292886161 35.64078063983584 0.339974020568929
    vertex -4.916296330179759 33.420785854787916 0.3399740205689219
  endloop
endfacet
facet normal -0.4717319685649711 -0.881741997317706 1.3107039495161907e-16
  outer loop
    vertex -9.065819292886161 35.64078063983584 0.339974020568929
    vertex -4.916296330179759 33.420785854787916 0.9364894174868089
    vertex -9.065819292886161 35.64078063983584 0.9389075773915407
  endloop
endfacet
facet normal -0.4717315259025901 0.8817422341402882 1.705026328651374e-06
  outer loop
    vertex -9.065819292886154 46.64078063983584 0.9181030205689306
    vertex -3.8695436838780655 49.42078585478794 0.3399740205689357
    vertex -9.065819292886154 46.64078063983584 0.33997402056893095
  endloop
endfacet
facet normal -0.4717315259025901 0.8817422341402882 1.705026328651374e-06
  outer loop
    vertex -3.8695436838780655 49.42078585478794 0.3399740205689357
    vertex -9.065819292886154 46.64078063983584 0.9181030205689306
    vertex -3.8695427538782807 49.42078411647058 0.9164882572786235
  endloop
endfacet
facet normal 0.4717315263073903 0.8817422339238336 1.64555266681294e-06
  outer loop
    vertex 19.877904168106003 49.420784116470564 0.9406127301163416
    vertex 25.074180707113843 46.64078063983584 0.3399740205689249
    vertex 19.877905098105785 49.42078585478792 0.3399740205689211
  endloop
endfacet
facet normal 0.4717315263073903 0.8817422339238336 1.64555266681294e-06
  outer loop
    vertex 25.074180707113843 46.64078063983584 0.3399740205689249
    vertex 19.877904168106003 49.420784116470564 0.9406127301163416
    vertex 25.074180707113843 46.64078063983584 0.9389979668260328
  endloop
endfacet
facet normal -2.7383328838779634e-16 4.918168514279068e-16 -1.0
  outer loop
    vertex -3.8695436838780655 49.42078585478794 0.3399740205689357
    vertex 4.112545747755985 41.549832789494054 0.3399740205689137
    vertex 4.079180707113845 41.04078063983585 0.3399740205689137
  endloop
endfacet
facet normal -2.7383328838779634e-16 4.918168514279068e-16 -1.0
  outer loop
    vertex 4.112545747755985 41.549832789494054 0.3399740205689137
    vertex -3.8695436838780655 49.42078585478794 0.3399740205689357
    vertex 4.212069984586479 42.05017491573569 0.3399740205689137
  endloop
endfacet
facet normal -2.7383328838779634e-16 4.918168514279068e-16 -1.0
  outer loop
    vertex 4.212069984586479 42.05017491573569 0.3399740205689137
    vertex -3.8695436838780655 49.42078585478794 0.3399740205689357
    vertex 4.3760505303198265 42.5332460260597 0.3399740205689137
  endloop
endfacet
facet normal -2.7383328838779634e-16 4.918168514279068e-16 -1.0
  outer loop
    vertex 4.3760505303198265 42.5332460260597 0.3399740205689137
    vertex -3.8695436838780655 49.42078585478794 0.3399740205689357
    vertex 4.601681632354534 42.99078063983585 0.3399740205689137
  endloop
endfacet
facet normal -2.7383328838779634e-16 4.918168514279068e-16 -1.0
  outer loop
    vertex 4.601681632354534 42.99078063983585 0.3399740205689137
    vertex -3.8695436838780655 49.42078585478794 0.3399740205689357
    vertex 4.8851026799780275 43.41495021296986 0.3399740205689137
  endloop
endfacet
facet normal -2.7383328838779634e-16 4.918168514279068e-16 -1.0
  outer loop
    vertex 4.8851026799780275 43.41495021296986 0.3399740205689137
    vertex -3.8695436838780655 49.42078585478794 0.3399740205689357
    vertex 5.221464260486309 43.798497086463385 0.3399740205689137
  endloop
endfacet
facet normal -2.7383328838779634e-16 4.918168514279068e-16 -1.0
  outer loop
    vertex 5.221464260486309 43.798497086463385 0.3399740205689137
    vertex -3.8695436838780655 49.42078585478794 0.3399740205689357
    vertex 5.605011133979834 44.13485866697167 0.3399740205689137
  endloop
endfacet
facet normal -2.7383328838779634e-16 4.918168514279068e-16 -1.0
  outer loop
    vertex 5.605011133979834 44.13485866697167 0.3399740205689137
    vertex -3.8695436838780655 49.42078585478794 0.3399740205689357
    vertex 6.029180707113843 44.41827971459516 0.3399740205689137
  endloop
endfacet
facet normal -2.7383328838779634e-16 4.918168514279068e-16 -1.0
  outer loop
    vertex 6.029180707113843 44.41827971459516 0.3399740205689137
    vertex -3.8695436838780655 49.42078585478794 0.3399740205689357
    vertex 6.486715320889992 44.64391081662987 0.3399740205689137
  endloop
endfacet
facet normal -2.7383328838779634e-16 4.918168514279068e-16 -1.0
  outer loop
    vertex 6.486715320889992 44.64391081662987 0.3399740205689137
    vertex -3.8695436838780655 49.42078585478794 0.3399740205689357
    vertex 19.877905098105785 49.42078585478792 0.3399740205689211
  endloop
endfacet
facet normal -2.7383328838779634e-16 4.918168514279068e-16 -1.0
  outer loop
    vertex 6.486715320889992 44.64391081662987 0.3399740205689137
    vertex 19.877905098105785 49.42078585478792 0.3399740205689211
    vertex 6.969786431214012 44.807891362363215 0.3399740205689137
  endloop
endfacet
facet normal -2.7383328838779634e-16 4.918168514279068e-16 -1.0
  outer loop
    vertex 6.969786431214012 44.807891362363215 0.3399740205689137
    vertex 19.877905098105785 49.42078585478792 0.3399740205689211
    vertex 7.470128557455641 44.90741559919371 0.3399740205689137
  endloop
endfacet
facet normal -2.7383328838779634e-16 4.918168514279068e-16 -1.0
  outer loop
    vertex 7.470128557455641 44.90741559919371 0.3399740205689137
    vertex 19.877905098105785 49.42078585478792 0.3399740205689211
    vertex 7.979180707113841 44.94078063983585 0.3399740205689137
  endloop
endfacet
facet normal -2.7383328838779634e-16 4.918168514279068e-16 -1.0
  outer loop
    vertex 7.979180707113841 44.94078063983585 0.3399740205689137
    vertex 19.877905098105785 49.42078585478792 0.3399740205689211
    vertex 8.488232856772045 44.90741559919371 0.3399740205689137
  endloop
endfacet
facet normal -2.7383328838779634e-16 4.918168514279068e-16 -1.0
  outer loop
    vertex 8.488232856772045 44.90741559919371 0.3399740205689137
    vertex 19.877905098105785 49.42078585478792 0.3399740205689211
    vertex 8.988574983013672 44.807891362363215 0.3399740205689137
  endloop
endfacet
facet normal -2.7383328838779634e-16 4.918168514279068e-16 -1.0
  outer loop
    vertex 8.988574983013672 44.807891362363215 0.3399740205689137
    vertex 19.877905098105785 49.42078585478792 0.3399740205689211
    vertex 9.471646093337691 44.64391081662987 0.3399740205689137
  endloop
endfacet
facet normal -2.7383328838779634e-16 4.918168514279068e-16 -1.0
  outer loop
    vertex 9.471646093337691 44.64391081662987 0.3399740205689137
    vertex 19.877905098105785 49.42078585478792 0.3399740205689211
    vertex 9.92918070711384 44.41827971459516 0.3399740205689137
  endloop
endfacet
facet normal -2.7383328838779634e-16 4.918168514279068e-16 -1.0
  outer loop
    vertex 9.92918070711384 44.41827971459516 0.3399740205689137
    vertex 19.877905098105785 49.42078585478792 0.3399740205689211
    vertex 10.35335028024785 44.13485866697167 0.3399740205689137
  endloop
endfacet
facet normal -2.7383328838779634e-16 4.918168514279068e-16 -1.0
  outer loop
    vertex 10.35335028024785 44.13485866697167 0.3399740205689137
    vertex 19.877905098105785 49.42078585478792 0.3399740205689211
    vertex 10.736897153741374 43.798497086463385 0.3399740205689137
  endloop
endfacet
facet normal -2.7383328838779634e-16 4.918168514279068e-16 -1.0
  outer loop
    vertex 10.736897153741374 43.798497086463385 0.3399740205689137
    vertex 19.877905098105785 49.42078585478792 0.3399740205689211
    vertex 11.073258734249654 43.41495021296986 0.3399740205689137
  endloop
endfacet
facet normal -2.7383328838779634e-16 4.918168514279068e-16 -1.0
  outer loop
    vertex 11.073258734249654 43.41495021296986 0.3399740205689137
    vertex 19.877905098105785 49.42078585478792 0.3399740205689211
    vertex 11.356679781873147 42.99078063983585 0.3399740205689137
  endloop
endfacet
facet normal -2.7383328838779634e-16 4.918168514279068e-16 -1.0
  outer loop
    vertex 11.356679781873147 42.99078063983585 0.3399740205689137
    vertex 19.877905098105785 49.42078585478792 0.3399740205689211
    vertex 11.582310883907855 42.5332460260597 0.3399740205689137
  endloop
endfacet
facet normal -2.7383328838779634e-16 4.918168514279068e-16 -1.0
  outer loop
    vertex 11.582310883907855 42.5332460260597 0.3399740205689137
    vertex 19.877905098105785 49.42078585478792 0.3399740205689211
    vertex 11.746291429641204 42.05017491573569 0.3399740205689137
  endloop
endfacet
facet normal -2.7383328838779634e-16 4.918168514279068e-16 -1.0
  outer loop
    vertex 11.746291429641204 42.05017491573569 0.3399740205689137
    vertex 19.877905098105785 49.42078585478792 0.3399740205689211
    vertex 11.845815666471697 41.549832789494054 0.3399740205689137
  endloop
endfacet
facet normal -2.7383328838779634e-16 4.918168514279068e-16 -1.0
  outer loop
    vertex 11.845815666471697 41.549832789494054 0.3399740205689137
    vertex 19.877905098105785 49.42078585478792 0.3399740205689211
    vertex 11.872626360832314 41.14078063983584 0.3399740205689186
  endloop
endfacet
facet normal -2.7383328838779634e-16 4.918168514279068e-16 -1.0
  outer loop
    vertex 11.872626360832314 41.14078063983584 0.3399740205689186
    vertex 19.877905098105785 49.42078585478792 0.3399740205689211
    vertex 11.879180707113836 41.04078063983585 0.3399740205689137
  endloop
endfacet
facet normal -2.7383328838779634e-16 4.918168514279068e-16 -1.0
  outer loop
    vertex -9.065819292886154 46.64078063983584 0.33997402056893095
    vertex -4.916296330179759 33.420785854787916 0.3399740205689219
    vertex -9.065819292886161 35.64078063983584 0.339974020568929
  endloop
endfacet
facet normal -2.7383328838779634e-16 4.918168514279068e-16 -1.0
  outer loop
    vertex -4.916296330179759 33.420785854787916 0.3399740205689219
    vertex -9.065819292886154 46.64078063983584 0.33997402056893095
    vertex -3.8695436838780655 49.42078585478794 0.3399740205689357
  endloop
endfacet
facet normal -2.7383328838779634e-16 4.918168514279068e-16 -1.0
  outer loop
    vertex -4.916296330179759 33.420785854787916 0.3399740205689219
    vertex -3.8695436838780655 49.42078585478794 0.3399740205689357
    vertex 4.885102679978027 38.66661106670185 0.3399740205689137
  endloop
endfacet
facet normal -2.7383328838779634e-16 4.918168514279068e-16 -1.0
  outer loop
    vertex -4.916296330179759 33.420785854787916 0.3399740205689219
    vertex 4.885102679978027 38.66661106670185 0.3399740205689137
    vertex 5.221464260486308 38.28306419320832 0.3399740205689137
  endloop
endfacet
facet normal -2.7383328838779634e-16 4.918168514279068e-16 -1.0
  outer loop
    vertex -4.916296330179759 33.420785854787916 0.3399740205689219
    vertex 5.221464260486308 38.28306419320832 0.3399740205689137
    vertex 5.605011133979832 37.94670261270004 0.3399740205689137
  endloop
endfacet
facet normal -2.7383328838779634e-16 4.918168514279068e-16 -1.0
  outer loop
    vertex -4.916296330179759 33.420785854787916 0.3399740205689219
    vertex 5.605011133979832 37.94670261270004 0.3399740205689137
    vertex 6.0291807071138415 37.663281565076545 0.3399740205689137
  endloop
endfacet
facet normal -2.7383328838779634e-16 4.918168514279068e-16 -1.0
  outer loop
    vertex -4.916296330179759 33.420785854787916 0.3399740205689219
    vertex 6.0291807071138415 37.663281565076545 0.3399740205689137
    vertex 6.486715320889991 37.43765046304184 0.3399740205689137
  endloop
endfacet
facet normal -2.7383328838779634e-16 4.918168514279068e-16 -1.0
  outer loop
    vertex -4.916296330179759 33.420785854787916 0.3399740205689219
    vertex 6.486715320889991 37.43765046304184 0.3399740205689137
    vertex 6.9697864312140085 37.273669917308496 0.3399740205689137
  endloop
endfacet
facet normal -2.7383328838779634e-16 4.918168514279068e-16 -1.0
  outer loop
    vertex -4.916296330179759 33.420785854787916 0.3399740205689219
    vertex 6.9697864312140085 37.273669917308496 0.3399740205689137
    vertex 20.924657744407448 33.420785854787916 0.33997402056891474
  endloop
endfacet
facet normal -2.7383328838779634e-16 4.918168514279068e-16 -1.0
  outer loop
    vertex 4.885102679978027 38.66661106670185 0.3399740205689137
    vertex -3.8695436838780655 49.42078585478794 0.3399740205689357
    vertex 4.601681632354534 39.090780639835856 0.3399740205689137
  endloop
endfacet
facet normal -2.7383328838779634e-16 4.918168514279068e-16 -1.0
  outer loop
    vertex 4.601681632354534 39.090780639835856 0.3399740205689137
    vertex -3.8695436838780655 49.42078585478794 0.3399740205689357
    vertex 4.3760505303198265 39.54831525361201 0.3399740205689137
  endloop
endfacet
facet normal -2.7383328838779634e-16 4.918168514279068e-16 -1.0
  outer loop
    vertex 4.3760505303198265 39.54831525361201 0.3399740205689137
    vertex -3.8695436838780655 49.42078585478794 0.3399740205689357
    vertex 4.212069984586479 40.03138636393602 0.3399740205689137
  endloop
endfacet
facet normal -2.7383328838779634e-16 4.918168514279068e-16 -1.0
  outer loop
    vertex 4.212069984586479 40.03138636393602 0.3399740205689137
    vertex -3.8695436838780655 49.42078585478794 0.3399740205689357
    vertex 4.112545747755985 40.531728490177656 0.3399740205689137
  endloop
endfacet
facet normal -2.7383328838779634e-16 4.918168514279068e-16 -1.0
  outer loop
    vertex 4.112545747755985 40.531728490177656 0.3399740205689137
    vertex -3.8695436838780655 49.42078585478794 0.3399740205689357
    vertex 4.079180707113845 41.04078063983585 0.3399740205689137
  endloop
endfacet
facet normal -2.7383328838779634e-16 4.918168514279068e-16 -1.0
  outer loop
    vertex 20.924657744407448 33.420785854787916 0.33997402056891474
    vertex 6.9697864312140085 37.273669917308496 0.3399740205689137
    vertex 7.470128557455636 37.17414568047799 0.3399740205689137
  endloop
endfacet
facet normal -2.7383328838779634e-16 4.918168514279068e-16 -1.0
  outer loop
    vertex 20.924657744407448 33.420785854787916 0.33997402056891474
    vertex 7.470128557455636 37.17414568047799 0.3399740205689137
    vertex 7.979180707113841 37.14078063983585 0.3399740205689137
  endloop
endfacet
facet normal -2.7383328838779634e-16 4.918168514279068e-16 -1.0
  outer loop
    vertex 20.924657744407448 33.420785854787916 0.33997402056891474
    vertex 7.979180707113841 37.14078063983585 0.3399740205689137
    vertex 8.488232856772042 37.17414568047799 0.3399740205689137
  endloop
endfacet
facet normal -2.7383328838779634e-16 4.918168514279068e-16 -1.0
  outer loop
    vertex 20.924657744407448 33.420785854787916 0.33997402056891474
    vertex 8.488232856772042 37.17414568047799 0.3399740205689137
    vertex 8.98857498301367 37.273669917308496 0.3399740205689137
  endloop
endfacet
facet normal -2.7383328838779634e-16 4.918168514279068e-16 -1.0
  outer loop
    vertex 20.924657744407448 33.420785854787916 0.33997402056891474
    vertex 8.98857498301367 37.273669917308496 0.3399740205689137
    vertex 9.47164609333769 37.43765046304184 0.3399740205689137
  endloop
endfacet
facet normal -2.7383328838779634e-16 4.918168514279068e-16 -1.0
  outer loop
    vertex 20.924657744407448 33.420785854787916 0.33997402056891474
    vertex 9.47164609333769 37.43765046304184 0.3399740205689137
    vertex 9.929180707113838 37.663281565076545 0.3399740205689137
  endloop
endfacet
facet normal -2.7383328838779634e-16 4.918168514279068e-16 -1.0
  outer loop
    vertex 20.924657744407448 33.420785854787916 0.33997402056891474
    vertex 9.929180707113838 37.663281565076545 0.3399740205689137
    vertex 10.353350280247849 37.94670261270004 0.3399740205689137
  endloop
endfacet
facet normal -2.7383328838779634e-16 4.918168514279068e-16 -1.0
  outer loop
    vertex 20.924657744407448 33.420785854787916 0.33997402056891474
    vertex 10.353350280247849 37.94670261270004 0.3399740205689137
    vertex 10.736897153741372 38.28306419320832 0.3399740205689137
  endloop
endfacet
facet normal -2.7383328838779634e-16 4.918168514279068e-16 -1.0
  outer loop
    vertex 20.924657744407448 33.420785854787916 0.33997402056891474
    vertex 10.736897153741372 38.28306419320832 0.3399740205689137
    vertex 11.073258734249654 38.66661106670185 0.3399740205689137
  endloop
endfacet
facet normal -2.7383328838779634e-16 4.918168514279068e-16 -1.0
  outer loop
    vertex 20.924657744407448 33.420785854787916 0.33997402056891474
    vertex 11.073258734249654 38.66661106670185 0.3399740205689137
    vertex 11.356679781873147 39.090780639835856 0.3399740205689137
  endloop
endfacet
facet normal -2.7383328838779634e-16 4.918168514279068e-16 -1.0
  outer loop
    vertex 20.924657744407448 33.420785854787916 0.33997402056891474
    vertex 11.356679781873147 39.090780639835856 0.3399740205689137
    vertex 11.582310883907855 39.54831525361201 0.3399740205689137
  endloop
endfacet
facet normal -2.7383328838779634e-16 4.918168514279068e-16 -1.0
  outer loop
    vertex 20.924657744407448 33.420785854787916 0.33997402056891474
    vertex 11.582310883907855 39.54831525361201 0.3399740205689137
    vertex 11.746291429641204 40.03138636393602 0.3399740205689137
  endloop
endfacet
facet normal -2.7383328838779634e-16 4.918168514279068e-16 -1.0
  outer loop
    vertex 20.924657744407448 33.420785854787916 0.33997402056891474
    vertex 11.746291429641204 40.03138636393602 0.3399740205689137
    vertex 11.845815666471697 40.531728490177656 0.3399740205689137
  endloop
endfacet
facet normal -2.7383328838779634e-16 4.918168514279068e-16 -1.0
  outer loop
    vertex 20.924657744407448 33.420785854787916 0.33997402056891474
    vertex 11.845815666471697 40.531728490177656 0.3399740205689137
    vertex 11.879180707113836 41.04078063983585 0.3399740205689137
  endloop
endfacet
facet normal -2.7383328838779634e-16 4.918168514279068e-16 -1.0
  outer loop
    vertex 20.924657744407448 33.420785854787916 0.33997402056891474
    vertex 11.879180707113836 41.04078063983585 0.3399740205689137
    vertex 19.877905098105785 49.42078585478792 0.3399740205689211
  endloop
endfacet
facet normal -2.7383328838779634e-16 4.918168514279068e-16 -1.0
  outer loop
    vertex 20.924657744407448 33.420785854787916 0.33997402056891474
    vertex 19.877905098105785 49.42078585478792 0.3399740205689211
    vertex 25.074180707113843 46.64078063983584 0.3399740205689249
  endloop
endfacet
facet normal -2.7383328838779634e-16 4.918168514279068e-16 -1.0
  outer loop
    vertex 20.924657744407448 33.420785854787916 0.33997402056891474
    vertex 25.074180707113843 46.64078063983584 0.3399740205689249
    vertex 25.074180707113836 35.64078063983584 0.33997402056892206
  endloop
endfacet
facet normal -1.4995277500351029e-09 0.9999999999956424 2.9521865850101502e-06
  outer loop
    vertex -3.8695436838780655 49.42078585478794 0.3399740205689357
    vertex 19.877904168106003 49.420784116470564 0.9406127301163416
    vertex 19.877905098105785 49.42078585478792 0.3399740205689211
  endloop
endfacet
facet normal -1.4995277500351029e-09 0.9999999999956424 2.9521865850101502e-06
  outer loop
    vertex 19.877904168106003 49.420784116470564 0.9406127301163416
    vertex -3.8695436838780655 49.42078585478794 0.3399740205689357
    vertex -3.8695427538782807 49.42078411647058 0.9164882572786235
  endloop
endfacet
facet normal 0.0 -1.0 0.0
  outer loop
    vertex 20.924657744407448 33.420785854787916 0.9364894174868019
    vertex -4.916296330179759 33.420785854787916 0.3399740205689219
    vertex 20.924657744407448 33.420785854787916 0.33997402056891474
  endloop
endfacet
facet normal 0.0 -1.0 0.0
  outer loop
    vertex -4.916296330179759 33.420785854787916 0.3399740205689219
    vertex 20.924657744407448 33.420785854787916 0.9364894174868019
    vertex -4.916296330179759 33.420785854787916 0.9364894174868089
  endloop
endfacet
facet normal 0.0015946092322575338 0.0018913175601834272 0.99999694006496
  outer loop
    vertex -4.916296330179759 33.420785854787916 0.9364894174868089
    vertex -9.065819292886154 46.64078063983584 0.9181030205689306
    vertex -9.065819292886161 35.64078063983584 0.9389075773915407
  endloop
endfacet
facet normal -0.00037101952784845683 0.0012743444264957395 0.9999991191950084
  outer loop
    vertex -3.8695427538782807 49.42078411647058 0.9164882572786235
    vertex -9.065819292886154 46.64078063983584 0.9181030205689306
    vertex -4.916296330179759 33.420785854787916 0.9364894174868089
  endloop
endfacet
facet normal -0.005656416709832512 0.0016201057014692212 0.9999826899539416
  outer loop
    vertex -3.2658192928861616 36.09078063983586 0.9414996163323749
    vertex -3.8695427538782807 49.42078411647058 0.9164882572786235
    vertex -4.916296330179759 33.420785854787916 0.9364894174868089
  endloop
endfacet
facet normal 2.728000654535053e-16 -0.0035283000420070327 0.9999937755300349
  outer loop
    vertex 20.924657744407448 33.420785854787916 0.9364894174868019
    vertex -2.0158192928861607 34.84078063983586 0.9414996163323749
    vertex -4.916296330179759 33.420785854787916 0.9364894174868089
  endloop
endfacet
facet normal 7.631774587418378e-05 -0.002295374722351309 0.9999973627117653
  outer loop
    vertex 20.924657744407448 33.420785854787916 0.9364894174868019
    vertex 17.974180707113838 34.84078063983584 0.9399740205689141
    vertex -2.0158192928861607 34.84078063983586 0.9414996163323749
  endloop
endfacet
facet normal 0.0020491871924556426 -1.4219685818021407e-16 0.9999979004137212
  outer loop
    vertex 20.924657744407448 33.420785854787916 0.9364894174868019
    vertex 19.224180707113845 46.17078063983585 0.9399740205689155
    vertex 19.224180707113835 36.09078063983584 0.9399740205689141
  endloop
endfacet
facet normal 0.0002295150133785208 -0.00024269169751961687 0.9999999442117977
  outer loop
    vertex 20.924657744407448 33.420785854787916 0.9364894174868019
    vertex 19.877904168106003 49.420784116470564 0.9406127301163416
    vertex 19.224180707113845 46.17078063983585 0.9399740205689155
  endloop
endfacet
facet normal 0.00017915128301342135 -0.0002459866012518979 0.9999999536977039
  outer loop
    vertex 25.074180707113843 46.64078063983584 0.9389979668260328
    vertex 19.877904168106003 49.420784116470564 0.9406127301163416
    vertex 20.924657744407448 33.420785854787916 0.9364894174868019
  endloop
endfacet
facet normal 0.0001220067137784068 -0.00022804993230156586 0.9999999665537946
  outer loop
    vertex 25.074180707113843 46.64078063983584 0.9389979668260328
    vertex 20.924657744407448 33.420785854787916 0.9364894174868019
    vertex 25.074180707113836 35.64078063983584 0.936489417486814
  endloop
endfacet
facet normal -0.0010157165889235077 0.017712485533123008 0.9998426057015425
  outer loop
    vertex 19.877904168106003 49.420784116470564 0.9406127301163416
    vertex -3.8695427538782807 49.42078411647058 0.9164882572786235
    vertex -2.0158192928861527 47.42078063983587 0.9538020205689138
  endloop
endfacet
facet normal -0.06821686861035259 -0.0012176326233692782 0.9976697731252524
  outer loop
    vertex -3.265819292886152 46.17078063983587 0.9538020205689138
    vertex -3.8695427538782807 49.42078411647058 0.9164882572786235
    vertex -3.2658192928861616 36.09078063983586 0.9414996163323749
  endloop
endfacet
facet normal 0.0006917453767461468 -0.0009777987962870849 0.9999992826986668
  outer loop
    vertex 19.877904168106003 49.420784116470564 0.9406127301163416
    vertex -2.0158192928861527 47.42078063983587 0.9538020205689138
    vertex 17.974180707113845 47.42078063983585 0.9399740205689155
  endloop
endfacet
endsolid barreljack remix
